<svg width="649" height="586" viewBox="0 0 649 586" fill="none" xmlns="http://www.w3.org/2000/svg">
<path d="M631.963 551.607C630.524 553.965 628.969 556.255 627.299 558.476C595.43 600.785 554.327 574.647 284.337 585.7C208.339 588.805 133.087 566.818 57.0628 565.285C48.1344 565.106 32.4698 564.912 19.6369 554.398C15.432 551.022 12.106 546.679 9.94227 541.739C6.35093 533.744 4.39201 522.457 3.74571 504.701C3.6391 501.836 3.56803 498.796 3.53249 495.58C3.43921 487.791 3.53249 478.923 3.819 468.842C4.29873 451.472 5.29152 430.398 6.70407 404.686C10.2821 339.631 11.8412 330.49 9.46253 305.471C5.64465 265.308 -1.48472 256.06 0.274303 231.981C4.1255 179.232 44.3032 141.881 53.658 133.186C122.74 68.9633 196.332 128.189 439.184 116.642C508.818 113.311 565.247 105.495 593.711 140.741C608.85 159.47 605.038 176.72 614.74 245.247C625.62 322.121 633.949 325.453 640.206 375.423C644.463 409.404 648.408 440.812 648.927 468.842C649.534 501.509 645.536 529.546 631.963 551.607Z" fill="#212076"/>
<path d="M131.908 274.729H166.609V369.62H156.914V437.56H131.908V274.729Z" fill="#BABAE5"/>
<path d="M178.515 332.229V352.47H216.794V340.224H233.125V291.573H276.168V208.501L311.322 197.388V252.955H318.358V210.767L352.605 224.379V272.011H384.814V237.305H417.023V271.558H424.965V294.011H450.824V364.55H477.129L484.505 357.181H494.6V373.171H474.637V392.447H497.092V459.361H156.914V332.229H178.515Z" fill="#BABAE5"/>
<path d="M304.066 244.28H281.098V252.449H304.066V244.28Z" fill="#7366B5"/>
<path d="M131.908 286.809H158.273V293.272H131.908V286.809Z" fill="#9E9ED8"/>
<path d="M131.908 306.544H158.273V313.007H131.908V306.544Z" fill="#9E9ED8"/>
<path d="M131.908 324.06H158.273V330.53H131.908V324.06Z" fill="#9E9ED8"/>
<path d="M131.908 346.687H156.914V353.15H131.908V346.687Z" fill="#9E9ED8"/>
<path d="M131.908 366.928H156.914V373.398H131.908V366.928Z" fill="#9E9ED8"/>
<path d="M178.515 332.229H188.103H198.817V352.47H178.515V332.229Z" fill="#9E9ED8"/>
<path d="M188.67 313.86H189.749V332.229H188.103L188.67 313.86Z" fill="#9E9ED8"/>
<path d="M137.012 267.98H136.219V274.389H137.012V267.98Z" fill="#9E9ED8"/>
<path d="M162.697 267.98H161.905V274.389H162.697V267.98Z" fill="#9E9ED8"/>
<path d="M304.066 213.152H281.098V221.321H304.066V213.152Z" fill="#9E9ED8"/>
<path d="M304.066 229.309H281.098V237.478H304.066V229.309Z" fill="#9E9ED8"/>
<path d="M347.108 244.28H324.141V252.449H347.108V244.28Z" fill="#9E9ED8"/>
<path d="M347.108 229.309H324.141V237.478H347.108V229.309Z" fill="#9E9ED8"/>
<path d="M303.839 244.507H280.872V252.676H303.839V244.507Z" fill="#9E9ED8"/>
<path d="M347.954 259.818H281.098V267.987H347.954V259.818Z" fill="#9E9ED8"/>
<path d="M347.954 272.69H281.098V280.859H347.954V272.69Z" fill="#9E9ED8"/>
<path d="M347.954 285.11H281.098V293.278H347.954V285.11Z" fill="#9E9ED8"/>
<path d="M394.229 240.369H390.031V272.237H394.229V240.369Z" fill="#9E9ED8"/>
<path d="M402.058 240.369H397.86V272.237H402.058V240.369Z" fill="#9E9ED8"/>
<path d="M409.314 240.369H405.116V272.237H409.314V240.369Z" fill="#9E9ED8"/>
<path d="M416.117 240.369H411.919V272.237H416.117V240.369Z" fill="#9E9ED8"/>
<path d="M244.239 300.021H239.195V306.657H244.239V300.021Z" fill="#9E9ED8"/>
<path d="M255.493 300.021H250.449V306.657H255.493V300.021Z" fill="#9E9ED8"/>
<path d="M266.753 300.021H261.709V306.657H266.753V300.021Z" fill="#9E9ED8"/>
<path d="M278.007 300.021H272.963V306.657H278.007V300.021Z" fill="#9E9ED8"/>
<path d="M289.26 300.021H284.217V306.657H289.26V300.021Z" fill="#9E9ED8"/>
<path d="M300.521 300.021H295.477V306.657H300.521V300.021Z" fill="#9E9ED8"/>
<path d="M311.775 300.021H306.731V306.657H311.775V300.021Z" fill="#9E9ED8"/>
<path d="M323.028 300.021H317.984V306.657H323.028V300.021Z" fill="#9E9ED8"/>
<path d="M334.289 300.021H329.245V306.657H334.289V300.021Z" fill="#9E9ED8"/>
<path d="M345.543 300.021H340.499V306.657H345.543V300.021Z" fill="#9E9ED8"/>
<path d="M356.803 300.021H351.759V306.657H356.803V300.021Z" fill="#9E9ED8"/>
<path d="M368.057 300.021H363.013V306.657H368.057V300.021Z" fill="#9E9ED8"/>
<path d="M379.31 300.021H374.267V306.657H379.31V300.021Z" fill="#9E9ED8"/>
<path d="M390.571 300.021H385.527V306.657H390.571V300.021Z" fill="#9E9ED8"/>
<path d="M401.825 300.021H396.781V306.657H401.825V300.021Z" fill="#9E9ED8"/>
<path d="M413.078 300.021H408.034V306.657H413.078V300.021Z" fill="#9E9ED8"/>
<path d="M424.339 300.021H419.295V306.657H424.339V300.021Z" fill="#9E9ED8"/>
<path d="M435.592 300.021H430.549V306.657H435.592V300.021Z" fill="#9E9ED8"/>
<path d="M446.846 300.021H441.802V306.657H446.846V300.021Z" fill="#9E9ED8"/>
<path d="M244.239 313.86H239.195V320.496H244.239V313.86Z" fill="#9E9ED8"/>
<path d="M255.493 313.86H250.449V320.496H255.493V313.86Z" fill="#9E9ED8"/>
<path d="M266.753 313.86H261.709V320.496H266.753V313.86Z" fill="#9E9ED8"/>
<path d="M278.007 313.86H272.963V320.496H278.007V313.86Z" fill="#9E9ED8"/>
<path d="M289.26 313.86H284.217V320.496H289.26V313.86Z" fill="#9E9ED8"/>
<path d="M300.521 313.86H295.477V320.496H300.521V313.86Z" fill="#9E9ED8"/>
<path d="M311.775 313.86H306.731V320.496H311.775V313.86Z" fill="#9E9ED8"/>
<path d="M323.028 313.86H317.984V320.496H323.028V313.86Z" fill="#9E9ED8"/>
<path d="M334.289 313.86H329.245V320.496H334.289V313.86Z" fill="#9E9ED8"/>
<path d="M345.543 313.86H340.499V320.496H345.543V313.86Z" fill="#9E9ED8"/>
<path d="M356.803 313.86H351.759V320.496H356.803V313.86Z" fill="#9E9ED8"/>
<path d="M368.057 313.86H363.013V320.496H368.057V313.86Z" fill="#9E9ED8"/>
<path d="M379.31 313.86H374.267V320.496H379.31V313.86Z" fill="#9E9ED8"/>
<path d="M390.571 313.86H385.527V320.496H390.571V313.86Z" fill="#9E9ED8"/>
<path d="M401.825 313.86H396.781V320.496H401.825V313.86Z" fill="#9E9ED8"/>
<path d="M413.078 313.86H408.034V320.496H413.078V313.86Z" fill="#9E9ED8"/>
<path d="M424.339 313.86H419.295V320.496H424.339V313.86Z" fill="#9E9ED8"/>
<path d="M435.592 313.86H430.549V320.496H435.592V313.86Z" fill="#9E9ED8"/>
<path d="M446.846 313.86H441.802V320.496H446.846V313.86Z" fill="#9E9ED8"/>
<path d="M244.239 327.691H239.195V334.328H244.239V327.691Z" fill="#9E9ED8"/>
<path d="M255.493 327.691H250.449V334.328H255.493V327.691Z" fill="#9E9ED8"/>
<path d="M266.753 327.691H261.709V334.328H266.753V327.691Z" fill="#9E9ED8"/>
<path d="M278.007 327.691H272.963V334.328H278.007V327.691Z" fill="#9E9ED8"/>
<path d="M289.26 327.691H284.217V334.328H289.26V327.691Z" fill="#9E9ED8"/>
<path d="M300.521 327.691H295.477V334.328H300.521V327.691Z" fill="#9E9ED8"/>
<path d="M311.775 327.691H306.731V334.328H311.775V327.691Z" fill="#9E9ED8"/>
<path d="M323.028 327.691H317.984V334.328H323.028V327.691Z" fill="#9E9ED8"/>
<path d="M334.289 327.691H329.245V334.328H334.289V327.691Z" fill="#9E9ED8"/>
<path d="M345.543 327.691H340.499V334.328H345.543V327.691Z" fill="#9E9ED8"/>
<path d="M356.803 327.691H351.759V334.328H356.803V327.691Z" fill="#9E9ED8"/>
<path d="M368.057 327.691H363.013V334.328H368.057V327.691Z" fill="#9E9ED8"/>
<path d="M379.31 327.691H374.267V334.328H379.31V327.691Z" fill="#9E9ED8"/>
<path d="M390.571 327.691H385.527V334.328H390.571V327.691Z" fill="#9E9ED8"/>
<path d="M401.825 327.691H396.781V334.328H401.825V327.691Z" fill="#9E9ED8"/>
<path d="M413.078 327.691H408.034V334.328H413.078V327.691Z" fill="#9E9ED8"/>
<path d="M424.339 327.691H419.295V334.328H424.339V327.691Z" fill="#9E9ED8"/>
<path d="M435.592 327.691H430.549V334.328H435.592V327.691Z" fill="#9E9ED8"/>
<path d="M446.846 327.691H441.802V334.328H446.846V327.691Z" fill="#9E9ED8"/>
<path d="M244.239 341.53H239.195V348.166H244.239V341.53Z" fill="#9E9ED8"/>
<path d="M255.493 341.53H250.449V348.166H255.493V341.53Z" fill="#9E9ED8"/>
<path d="M266.753 341.53H261.709V348.166H266.753V341.53Z" fill="#9E9ED8"/>
<path d="M278.007 341.53H272.963V348.166H278.007V341.53Z" fill="#9E9ED8"/>
<path d="M289.26 341.53H284.217V348.166H289.26V341.53Z" fill="#9E9ED8"/>
<path d="M300.521 341.53H295.477V348.166H300.521V341.53Z" fill="#9E9ED8"/>
<path d="M311.775 341.53H306.731V348.166H311.775V341.53Z" fill="#9E9ED8"/>
<path d="M323.028 341.53H317.984V348.166H323.028V341.53Z" fill="#9E9ED8"/>
<path d="M334.289 341.53H329.245V348.166H334.289V341.53Z" fill="#9E9ED8"/>
<path d="M345.543 341.53H340.499V348.166H345.543V341.53Z" fill="#9E9ED8"/>
<path d="M356.803 341.53H351.759V348.166H356.803V341.53Z" fill="#9E9ED8"/>
<path d="M368.057 341.53H363.013V348.166H368.057V341.53Z" fill="#9E9ED8"/>
<path d="M379.31 341.53H374.267V348.166H379.31V341.53Z" fill="#9E9ED8"/>
<path d="M390.571 341.53H385.527V348.166H390.571V341.53Z" fill="#9E9ED8"/>
<path d="M401.825 341.53H396.781V348.166H401.825V341.53Z" fill="#9E9ED8"/>
<path d="M413.078 341.53H408.034V348.166H413.078V341.53Z" fill="#9E9ED8"/>
<path d="M424.339 341.53H419.295V348.166H424.339V341.53Z" fill="#9E9ED8"/>
<path d="M435.592 341.53H430.549V348.166H435.592V341.53Z" fill="#9E9ED8"/>
<path d="M446.846 341.53H441.802V348.166H446.846V341.53Z" fill="#9E9ED8"/>
<path d="M244.239 355.362H239.195V361.998H244.239V355.362Z" fill="#9E9ED8"/>
<path d="M255.493 355.362H250.449V361.998H255.493V355.362Z" fill="#9E9ED8"/>
<path d="M266.753 355.362H261.709V361.998H266.753V355.362Z" fill="#9E9ED8"/>
<path d="M278.007 355.362H272.963V361.998H278.007V355.362Z" fill="#9E9ED8"/>
<path d="M289.26 355.362H284.217V361.998H289.26V355.362Z" fill="#9E9ED8"/>
<path d="M300.521 355.362H295.477V361.998H300.521V355.362Z" fill="#9E9ED8"/>
<path d="M311.775 355.362H306.731V361.998H311.775V355.362Z" fill="#9E9ED8"/>
<path d="M323.028 355.362H317.984V361.998H323.028V355.362Z" fill="#9E9ED8"/>
<path d="M334.289 355.362H329.245V361.998H334.289V355.362Z" fill="#9E9ED8"/>
<path d="M345.543 355.362H340.499V361.998H345.543V355.362Z" fill="#9E9ED8"/>
<path d="M356.803 355.362H351.759V361.998H356.803V355.362Z" fill="#9E9ED8"/>
<path d="M368.057 355.362H363.013V361.998H368.057V355.362Z" fill="#9E9ED8"/>
<path d="M379.31 355.362H374.267V361.998H379.31V355.362Z" fill="#9E9ED8"/>
<path d="M390.571 355.362H385.527V361.998H390.571V355.362Z" fill="#9E9ED8"/>
<path d="M401.825 355.362H396.781V361.998H401.825V355.362Z" fill="#9E9ED8"/>
<path d="M413.078 355.362H408.034V361.998H413.078V355.362Z" fill="#9E9ED8"/>
<path d="M424.339 355.362H419.295V361.998H424.339V355.362Z" fill="#9E9ED8"/>
<path d="M435.592 355.362H430.549V361.998H435.592V355.362Z" fill="#9E9ED8"/>
<path d="M446.846 355.362H441.802V361.998H446.846V355.362Z" fill="#9E9ED8"/>
<path d="M244.239 369.2H239.195V375.837H244.239V369.2Z" fill="#9E9ED8"/>
<path d="M255.493 369.2H250.449V375.837H255.493V369.2Z" fill="#9E9ED8"/>
<path d="M266.753 369.2H261.709V375.837H266.753V369.2Z" fill="#9E9ED8"/>
<path d="M278.007 369.2H272.963V375.837H278.007V369.2Z" fill="#9E9ED8"/>
<path d="M289.26 369.2H284.217V375.837H289.26V369.2Z" fill="#9E9ED8"/>
<path d="M300.521 369.2H295.477V375.837H300.521V369.2Z" fill="#9E9ED8"/>
<path d="M311.775 369.2H306.731V375.837H311.775V369.2Z" fill="#9E9ED8"/>
<path d="M323.028 369.2H317.984V375.837H323.028V369.2Z" fill="#9E9ED8"/>
<path d="M334.289 369.2H329.245V375.837H334.289V369.2Z" fill="#9E9ED8"/>
<path d="M345.543 369.2H340.499V375.837H345.543V369.2Z" fill="#9E9ED8"/>
<path d="M356.803 369.2H351.759V375.837H356.803V369.2Z" fill="#9E9ED8"/>
<path d="M368.057 369.2H363.013V375.837H368.057V369.2Z" fill="#9E9ED8"/>
<path d="M379.31 369.2H374.267V375.837H379.31V369.2Z" fill="#9E9ED8"/>
<path d="M390.571 369.2H385.527V375.837H390.571V369.2Z" fill="#9E9ED8"/>
<path d="M401.825 369.2H396.781V375.837H401.825V369.2Z" fill="#9E9ED8"/>
<path d="M413.078 369.2H408.034V375.837H413.078V369.2Z" fill="#9E9ED8"/>
<path d="M424.339 369.2H419.295V375.837H424.339V369.2Z" fill="#9E9ED8"/>
<path d="M435.592 369.2H430.549V375.837H435.592V369.2Z" fill="#9E9ED8"/>
<path d="M446.846 369.2H441.802V375.837H446.846V369.2Z" fill="#9E9ED8"/>
<path d="M385.52 421.71H358.842V426.474H385.52V421.71Z" fill="#9E9ED8"/>
<path d="M385.52 430.211H358.842V434.975H385.52V430.211Z" fill="#9E9ED8"/>
<path d="M385.52 440.758H358.842V445.522H385.52V440.758Z" fill="#9E9ED8"/>
<path d="M494.6 357.181H505.993V459.361H497.092V392.447H474.637V373.171H494.6V357.181Z" fill="#9E9ED8"/>
<path d="M78.9972 467.636V410.483L88.5253 397.551L96.0078 407.251V467.636H78.9972Z" fill="#9E9ED8"/>
<path d="M85.9734 203.791V403.62H90.8906V203.791H85.9734Z" fill="#9E9ED8"/>
<path d="M87.5059 179.352C93.6144 179.352 98.5664 176.002 98.5664 171.87C98.5664 167.737 93.6144 164.387 87.5059 164.387C81.3973 164.387 76.4453 167.737 76.4453 171.87C76.4453 176.002 81.3973 179.352 87.5059 179.352Z" fill="#9E9ED8"/>
<path d="M71.688 174.708L79.5103 203.791H94.482L102.644 174.708H71.688Z" fill="#9E9ED8"/>
<path d="M73.8801 176.767L80.5963 201.732H93.4426L100.452 176.767H73.8801Z" fill="#BABAE5"/>
<path d="M97.6136 170.51H76.7185C75.1509 170.51 73.8801 171.78 73.8801 173.345C73.8801 174.911 75.1509 176.18 76.7185 176.18H97.6136C99.1812 176.18 100.452 174.911 100.452 173.345C100.452 171.78 99.1812 170.51 97.6136 170.51Z" fill="#9E9ED8"/>
<path d="M88.432 159.49C88.432 158.809 87.8816 158.258 87.2027 158.258C86.5238 158.258 85.9734 158.809 85.9734 159.49V164.621C85.9734 165.301 86.5238 165.853 87.2027 165.853C87.8816 165.853 88.432 165.301 88.432 164.621V159.49Z" fill="#9E9ED8"/>
<path d="M648.941 468.855C649.554 501.503 645.523 529.546 631.963 551.607L9.9356 541.753C6.34426 533.757 4.38535 522.471 3.73904 504.714C3.63243 501.849 3.56136 498.809 3.52583 495.593C3.43255 487.804 3.52583 478.936 3.81234 468.855H648.941Z" fill="#407C89"/>
<path d="M7.69685 495.406C7.61689 498.582 7.53471 501.758 7.45031 504.934L3.73904 504.714C3.63243 501.849 3.56136 498.809 3.52583 495.593L7.69685 495.406Z" fill="#CDE9ED"/>
<path d="M87.6791 496.492V503.255L130.589 505.8L130.882 494.534L87.6791 496.492Z" fill="#CDE9ED"/>
<path d="M206.733 495.973V503.695L255.732 506.6L256.072 493.734L206.733 495.973Z" fill="#CDE9ED"/>
<path d="M328.512 495.919V503.742L378.191 506.693L378.531 493.647L328.512 495.919Z" fill="#CDE9ED"/>
<path d="M450.631 495.919V503.742L500.283 506.68L500.623 493.634L450.631 495.919Z" fill="#CDE9ED"/>
<path d="M569.805 495.413V504.161L625.334 507.459L625.714 492.881L569.805 495.413Z" fill="#CDE9ED"/>
<path d="M643.963 470.361C644.097 469.129 641.465 466.45 639.299 465.031C635.208 462.326 632.636 464.005 629.971 461.7C626.686 458.801 628.985 454.637 626.113 450.973C624.614 449.054 621.556 447.101 614.66 447.235C615.539 445.894 616.125 444.382 616.38 442.799C616.635 441.215 616.553 439.596 616.139 438.047C614.52 432.443 609.056 430.684 608.65 430.558C612.866 417.293 613.006 403.068 609.05 389.723C605.095 376.378 597.226 364.527 586.462 355.702C589.177 350.78 590.51 345.215 590.32 339.598C589.793 327.778 581.865 314.233 569.112 311.474C561.069 309.735 554.32 312.98 552.101 314.199C540.774 320.409 534.844 335.227 537.443 346.181C538.842 352.037 542.893 357.667 541.187 359.106C539.855 360.206 536.79 357.294 534.038 358.767C531.826 359.953 530.993 362.764 530.64 364.89C528.341 363.171 520.565 357.801 512.263 359.786C501.096 362.451 492.188 377.682 495.606 396.191C492.941 396.858 489.069 398.23 486.757 401.635C482.6 407.778 486.757 415.627 482.68 418.958C481.547 419.884 479.348 420.79 474.851 419.624C475.783 417.046 479.848 404.86 473.831 391.727C466.242 375.177 449.178 371.359 447.293 370.973C448.199 368.974 451.597 360.939 448.312 352.264C444.721 342.763 433.753 334.154 422.793 337.293C415.084 339.498 409.307 346.974 408.134 356.002C396.374 352.224 384.021 355.389 377.058 363.83C370.689 371.546 371.182 380.807 371.388 383.226C370.355 384.045 359.941 391.747 359.808 405.406C359.681 417.832 368.157 425.394 369.389 426.487C367.54 429.129 366.302 432.149 365.765 435.328C364.359 443.797 368.59 450.346 369.729 451.985C358.322 456.649 345.416 462.846 346.255 466.956C347.701 474.032 388.778 470.128 426.877 468.289C541.813 462.872 643.151 477.657 643.963 470.361Z" fill="#89DAE8"/>
<path d="M397.174 471.987C396.281 471.047 384.374 458.155 388.445 441.671C390.857 431.89 398.773 421.303 409.54 419.384C411.79 418.994 414.087 418.974 416.343 419.324C416.397 417.152 416.856 406.119 425.531 398.57C435.366 390.015 449.905 391.028 459.213 396.871C471.513 404.593 476.743 422.063 470.1 438.053C470.82 436.814 476.097 428.059 487.111 426.147C498.977 424.095 507.319 431.764 508.205 432.61C509.651 416.22 522.737 405.699 533.045 406.752C544.312 407.898 555.906 423.262 551.075 441.112L578.3 428.186C578.3 428.186 595.31 432.53 596.67 444.843C598.029 457.156 598.855 467.563 598.855 467.563L397.174 471.987Z" fill="#7CCBDD"/>
<path d="M1.36703 480.202C1.36703 478.156 19.0572 446.289 49.0006 437.56C78.9439 428.832 123.173 431.211 142.562 434.949C161.951 438.686 194.62 442.437 211.29 442.437C227.961 442.437 266.073 418.172 287.168 421.969C308.263 425.767 336.727 430.524 383.395 469.315L1.36703 480.202Z" fill="#7CCBDD"/>
<path d="M51.8657 420.151C43.2971 422.283 33.6358 418.778 28.2188 412.495C13.1738 395.052 36.4076 362.691 42.3376 356.868C44.5364 354.709 46.3354 354.343 47.4414 354.316C51.6458 354.229 54.9439 359.04 57.8223 363.644C66.6774 377.922 71.1083 385.058 71.1483 390.854C71.2682 401.935 64.7918 416.939 51.8657 420.151Z" fill="#61BAD6"/>
<path d="M71.7879 427.779C65.598 429.319 58.6152 426.787 54.6974 422.243C43.8235 409.637 60.6208 386.264 64.9051 382.04C66.4909 380.481 67.7768 380.207 68.5964 380.194C71.628 380.127 74.0134 383.605 76.0922 386.957C82.4953 397.277 85.7002 402.434 85.7335 406.625C85.8001 414.614 81.1161 425.461 71.7879 427.779Z" fill="#61BAD6"/>
<path d="M230.04 432.23C219.379 434.895 207.426 430.525 200.723 422.736C182.067 401.102 210.877 360.965 218.233 353.743C220.958 351.078 223.157 350.605 224.563 350.578C229.773 350.465 233.891 356.435 237.436 362.178C248.423 379.888 253.907 388.749 253.96 395.925C254.073 409.637 246.038 428.253 230.04 432.23Z" fill="#61BAD6"/>
<path d="M254.686 445.955C247.644 447.708 239.701 444.823 235.25 439.666C222.891 425.327 241.98 398.736 246.857 393.953C248.656 392.18 250.116 391.874 251.048 391.854C254.5 391.78 257.212 395.732 259.577 399.543C266.86 411.276 270.498 417.139 270.538 421.903C270.611 430.984 265.28 443.317 254.686 445.955Z" fill="#61BAD6"/>
<path d="M195.353 431.337C187.144 433.376 177.889 430.005 172.699 424.008C158.287 407.298 180.547 376.303 186.224 370.706C188.33 368.641 190.029 368.281 191.115 368.261C195.113 368.174 198.304 372.785 201.056 377.222C209.545 390.901 213.789 397.737 213.836 403.287C213.922 413.888 207.712 428.266 195.353 431.337Z" fill="#61BAD6"/>
<path d="M222.524 371.499H222.518C221.204 371.499 220.139 372.564 220.139 373.878V459.108C220.139 460.421 221.204 461.486 222.518 461.486H222.524C223.838 461.486 224.903 460.421 224.903 459.108V373.878C224.903 372.564 223.838 371.499 222.524 371.499Z" fill="#B1B1DD"/>
<path d="M250.842 423.222C250.842 421.827 249.713 420.697 248.32 420.697C246.927 420.697 245.798 421.827 245.798 423.222V473.286C245.798 474.681 246.927 475.811 248.32 475.811C249.713 475.811 250.842 474.681 250.842 473.286V423.222Z" fill="#B1B1DD"/>
<path d="M190.882 387.543H190.875C189.937 387.543 189.176 388.304 189.176 389.242V465.571C189.176 466.509 189.937 467.27 190.875 467.27H190.882C191.82 467.27 192.581 466.509 192.581 465.571V389.242C192.581 388.304 191.82 387.543 190.882 387.543Z" fill="#B1B1DD"/>
<path d="M49.0006 375.523H48.9939C47.6802 375.523 46.6152 376.588 46.6152 377.902V437.674C46.6152 438.987 47.6802 440.052 48.9939 440.052H49.0006C50.3143 440.052 51.3792 438.987 51.3792 437.674V377.902C51.3792 376.588 50.3143 375.523 49.0006 375.523Z" fill="#BABAE5"/>
<path d="M70.2088 399.09C70.2088 398.1 69.4063 397.297 68.4165 397.297C67.4266 397.297 66.6241 398.1 66.6241 399.09V435.768C66.6241 436.758 67.4266 437.56 68.4165 437.56C69.4063 437.56 70.2088 436.758 70.2088 435.768V399.09Z" fill="#B1B1DD"/>
<path d="M177.42 393.63L176.435 394.615C175.881 395.169 175.881 396.068 176.435 396.622L189.17 409.356C189.725 409.911 190.623 409.911 191.178 409.356L192.162 408.372C192.716 407.818 192.716 406.919 192.162 406.365L179.427 393.63C178.873 393.076 177.974 393.076 177.42 393.63Z" fill="#B1B1DD"/>
<path d="M58.4677 401.436L58.2651 401.639C57.7109 402.193 57.7109 403.092 58.2651 403.646L67.3582 412.739C67.9124 413.293 68.811 413.293 69.3652 412.739L69.5678 412.536C70.1221 411.982 70.122 411.083 69.5678 410.529L60.4748 401.436C59.9205 400.882 59.0219 400.882 58.4677 401.436Z" fill="#B1B1DD"/>
<path d="M67.0346 420.928L67.2372 421.13C67.7915 421.684 68.69 421.685 69.2443 421.13L78.3374 412.037C78.8916 411.483 78.8916 410.585 78.3374 410.03L78.1348 409.828C77.5805 409.274 76.6819 409.274 76.1277 409.828L67.0346 418.921C66.4804 419.475 66.4804 420.373 67.0346 420.928Z" fill="#B1B1DD"/>
<path d="M34.7383 394.598L33.7537 395.582C33.1994 396.137 33.1994 397.035 33.7537 397.589L46.4887 410.324C47.0429 410.878 47.9415 410.878 48.4957 410.324L49.4804 409.339C50.0346 408.785 50.0347 407.887 49.4804 407.332L36.7454 394.598C36.1912 394.043 35.2926 394.043 34.7383 394.598Z" fill="#B1B1DD"/>
<path d="M208.102 386.537L207.118 387.522C206.563 388.076 206.563 388.974 207.118 389.529L219.853 402.263C220.407 402.818 221.305 402.818 221.86 402.263L222.844 401.279C223.399 400.724 223.399 399.826 222.844 399.272L210.109 386.537C209.555 385.983 208.656 385.983 208.102 386.537Z" fill="#B1B1DD"/>
<path d="M222.939 419.32L223.923 420.305C224.477 420.859 225.376 420.859 225.93 420.305L238.665 407.57C239.219 407.016 239.219 406.118 238.665 405.563L237.681 404.579C237.126 404.024 236.228 404.024 235.674 404.579L222.939 417.313C222.384 417.868 222.384 418.766 222.939 419.32Z" fill="#B1B1DD"/>
<path d="M47.0341 395.391L48.0187 396.376C48.573 396.93 49.4716 396.93 50.0258 396.376L60.5794 385.822C61.1336 385.268 61.1336 384.37 60.5794 383.815L59.5947 382.831C59.0405 382.277 58.1419 382.277 57.5876 382.831L47.0341 393.384C46.4798 393.938 46.4798 394.837 47.0341 395.391Z" fill="#B1B1DD"/>
<path d="M247.748 430.487L248.733 431.471C249.287 432.025 250.186 432.025 250.74 431.471L263.475 418.737C264.029 418.182 264.029 417.284 263.475 416.73L262.491 415.745C261.936 415.191 261.038 415.191 260.483 415.745L247.748 428.48C247.194 429.034 247.194 429.932 247.748 430.487Z" fill="#B1B1DD"/>
<path d="M234.583 420.678L233.598 421.663C233.044 422.217 233.044 423.116 233.598 423.67L246.333 436.404C246.887 436.959 247.786 436.959 248.34 436.404L249.325 435.42C249.879 434.866 249.879 433.967 249.325 433.413L236.59 420.678C236.035 420.124 235.137 420.124 234.583 420.678Z" fill="#B1B1DD"/>
<path d="M598.708 434.722C609.329 437.387 621.316 433.016 628.026 425.228C646.682 403.594 617.871 363.457 610.515 356.228C607.79 353.563 605.591 353.097 604.185 353.063C598.975 352.95 594.857 358.92 591.313 364.67C580.325 382.373 574.828 391.228 574.775 398.417C574.668 412.122 582.704 430.724 598.708 434.722Z" fill="#61BAD6"/>
<path d="M568.419 452.898C575.455 454.65 583.397 451.772 587.848 446.608C600.214 432.277 581.118 405.686 576.248 400.895C574.442 399.123 572.983 398.823 572.05 398.803C568.599 398.73 565.887 402.681 563.521 406.492C556.252 418.218 552.601 424.062 552.568 428.845C552.494 437.933 557.818 450.266 568.419 452.898Z" fill="#61BAD6"/>
<path d="M605.225 450.093H605.232C606.545 450.093 607.61 449.028 607.61 447.714V362.484C607.61 361.171 606.545 360.106 605.232 360.106H605.225C603.911 360.106 602.846 361.171 602.846 362.484V447.714C602.846 449.028 603.911 450.093 605.225 450.093Z" fill="#B1B1DD"/>
<path d="M572.257 468.576C572.257 469.97 573.386 471.101 574.779 471.101C576.171 471.101 577.3 469.97 577.3 468.576V434.555C577.3 433.161 576.171 432.03 574.779 432.03C573.386 432.03 572.257 433.161 572.257 434.555V468.576Z" fill="#B1B1DD"/>
<path d="M604.904 389.886L605.889 390.871C606.443 391.425 607.342 391.425 607.896 390.871L620.631 378.136C621.185 377.582 621.185 376.683 620.631 376.129L619.646 375.145C619.092 374.59 618.194 374.59 617.639 375.145L604.904 387.879C604.35 388.433 604.35 389.332 604.904 389.886Z" fill="#B1B1DD"/>
<path d="M589.371 412.901L588.386 413.886C587.832 414.44 587.832 415.339 588.386 415.893L601.121 428.628C601.676 429.182 602.574 429.182 603.128 428.628L604.113 427.643C604.667 427.089 604.667 426.19 604.113 425.636L591.378 412.901C590.824 412.347 589.925 412.347 589.371 412.901Z" fill="#B1B1DD"/>
<path d="M562.258 421.055L561.274 422.039C560.72 422.594 560.72 423.492 561.274 424.046L574.009 436.781C574.563 437.335 575.462 437.335 576.016 436.781L577.001 435.796C577.555 435.242 577.555 434.343 577.001 433.789L564.266 421.055C563.711 420.5 562.813 420.5 562.258 421.055Z" fill="#B1B1DD"/>
<path d="M573.771 442.367L574.756 443.351C575.31 443.906 576.209 443.906 576.763 443.351L589.498 430.617C590.052 430.063 590.052 429.164 589.498 428.61L588.514 427.625C587.959 427.071 587.061 427.071 586.506 427.625L573.771 440.36C573.217 440.914 573.217 441.813 573.771 442.367Z" fill="#B1B1DD"/>
<path d="M336.841 476.571C336.481 476.571 330.178 477.011 327.213 472.573C326.604 471.772 326.18 470.846 325.969 469.863C325.758 468.879 325.766 467.861 325.993 466.881C326.219 465.9 326.658 464.982 327.279 464.19C327.899 463.398 328.687 462.753 329.585 462.299C331.49 461.229 333.737 460.945 335.848 461.506C333.529 458.335 333.489 454.371 335.481 452.019C336.22 451.212 337.14 450.593 338.166 450.212C339.191 449.831 340.292 449.699 341.378 449.826C341.378 449.826 342.478 449.966 347.102 452.665C348.229 450.796 349.976 449.381 352.039 448.667C353.735 448.156 355.539 448.117 357.256 448.554C361.134 449.647 364.079 453.844 364.739 459.101C364.739 459.101 368.456 453.658 374.66 456.376C380.863 459.094 380.87 470.441 380.87 470.441C380.87 470.441 387.986 469.308 392.13 472.706C396.274 476.104 397.174 479.289 397.174 479.289C397.174 479.289 358.162 480.195 355.197 477.697C352.232 475.198 336.841 476.571 336.841 476.571Z" fill="#9F9FD1"/>
<path d="M556.978 474.452C556.619 474.452 550.315 474.892 547.35 470.454C546.743 469.653 546.319 468.728 546.108 467.745C545.898 466.762 545.906 465.744 546.131 464.764C546.357 463.785 546.795 462.866 547.414 462.074C548.033 461.282 548.819 460.636 549.716 460.18C551.621 459.106 553.87 458.817 555.986 459.374C553.667 456.203 553.627 452.238 555.619 449.886C556.358 449.08 557.278 448.461 558.303 448.08C559.328 447.699 560.43 447.566 561.516 447.694C561.516 447.694 562.615 447.834 567.239 450.533C568.367 448.664 570.114 447.249 572.177 446.535C573.873 446.024 575.677 445.984 577.394 446.422C581.272 447.514 584.217 451.712 584.876 456.969C584.876 456.969 588.594 451.525 594.797 454.244C601.001 456.962 601.007 468.309 601.007 468.309C601.007 468.309 608.123 467.176 612.268 470.574C616.412 473.972 617.312 477.157 617.312 477.157C617.312 477.157 578.3 478.063 575.335 475.565C572.37 473.066 556.978 474.452 556.978 474.452Z" fill="#9F9FD1"/>
<path d="M174.811 476.551C174.458 476.617 168.221 477.777 164.776 473.699C164.077 472.976 163.545 472.108 163.219 471.156C162.892 470.204 162.78 469.192 162.888 468.192C162.997 467.191 163.325 466.227 163.848 465.368C164.371 464.508 165.077 463.775 165.916 463.219C167.678 461.926 169.876 461.376 172.039 461.686C169.374 458.808 168.854 454.877 170.56 452.312C171.195 451.422 172.034 450.696 173.006 450.195C173.979 449.695 175.056 449.434 176.15 449.433C176.15 449.433 177.256 449.433 182.147 451.572C183.048 449.592 184.616 447.991 186.577 447.048C188.201 446.343 189.986 446.092 191.741 446.322C195.739 446.948 199.144 450.766 200.403 455.91C200.403 455.91 203.448 450.06 209.931 452.032C216.414 454.004 217.76 465.257 217.76 465.257C217.76 465.257 224.696 463.259 229.207 466.184C233.718 469.108 234.997 472.113 234.997 472.113C234.997 472.113 196.352 477.63 193.141 475.505C189.929 473.379 174.811 476.551 174.811 476.551Z" fill="#9F9FD1"/>
<path d="M52.6319 457.535C52.2721 457.535 45.9689 457.975 43.0039 453.538C42.3966 452.736 41.9726 451.811 41.762 450.828C41.5513 449.845 41.559 448.828 41.7846 447.848C42.0102 446.868 42.4481 445.949 43.0675 445.157C43.6869 444.365 44.4727 443.719 45.3693 443.264C47.2752 442.19 49.5259 441.905 51.6391 442.471C49.3137 439.299 49.2804 435.335 51.2726 432.983C52.0105 432.177 52.9294 431.558 53.9534 431.177C54.9775 430.796 56.0775 430.664 57.1627 430.791C57.1627 430.791 58.2688 430.931 62.8929 433.623C64.0185 431.755 65.7631 430.34 67.8234 429.625C69.52 429.114 71.3235 429.075 73.0406 429.512C76.9251 430.618 79.8501 434.815 80.5164 440.052C80.5164 440.052 84.2277 434.609 90.4376 437.327C96.6474 440.046 96.6474 451.392 96.6474 451.392C96.6474 451.392 103.763 450.26 107.908 453.658C112.052 457.056 112.952 460.234 112.952 460.234C112.952 460.234 73.94 461.146 70.975 458.648C68.01 456.149 52.6319 457.535 52.6319 457.535Z" fill="#9F9FD1"/>
<path d="M199.344 474.332C198.991 474.399 192.741 475.478 189.349 471.36C188.659 470.628 188.139 469.753 187.825 468.798C187.511 467.842 187.41 466.829 187.531 465.83C187.652 464.832 187.991 463.872 188.524 463.019C189.057 462.165 189.771 461.44 190.615 460.893C192.397 459.624 194.604 459.103 196.765 459.441C194.1 456.529 193.667 452.591 195.399 450.046C196.046 449.164 196.895 448.449 197.874 447.962C198.854 447.474 199.935 447.227 201.029 447.241C201.029 447.241 202.135 447.241 207.026 449.453C207.957 447.487 209.545 445.908 211.517 444.989C213.15 444.301 214.94 444.071 216.694 444.323C220.692 444.989 224.023 448.867 225.249 454.017C225.249 454.017 228.368 448.214 234.831 450.266C241.294 452.318 242.493 463.592 242.493 463.592C242.493 463.592 249.449 461.713 253.92 464.658C258.391 467.603 259.637 470.654 259.637 470.654C259.637 470.654 220.938 475.678 217.74 473.506C214.542 471.334 199.344 474.332 199.344 474.332Z" fill="#8A8ABC"/>
<path d="M586.589 478.27C586.229 478.33 579.979 479.362 576.594 475.225C575.909 474.488 575.394 473.61 575.085 472.652C574.777 471.694 574.683 470.681 574.81 469.682C574.937 468.684 575.283 467.726 575.821 466.877C576.36 466.027 577.078 465.306 577.927 464.764C579.715 463.507 581.926 463.002 584.083 463.358C581.458 460.427 581.032 456.489 582.784 453.951C583.438 453.075 584.29 452.367 585.272 451.886C586.253 451.406 587.335 451.165 588.428 451.186C588.428 451.186 589.534 451.186 594.424 453.438C595.367 451.477 596.965 449.907 598.942 449C600.583 448.332 602.373 448.115 604.125 448.374C608.123 449.08 611.455 452.965 612.614 458.128C612.614 458.128 615.772 452.345 622.222 454.437C628.672 456.529 629.791 467.816 629.791 467.816C629.791 467.816 636.761 465.984 641.218 468.962C645.676 471.94 646.888 475.005 646.888 475.005C646.888 475.005 608.157 479.769 604.978 477.577C601.8 475.385 586.589 478.27 586.589 478.27Z" fill="#8A8ABC"/>
<path d="M34.2754 457.535C33.9156 457.535 27.6124 457.975 24.6474 453.538C24.0401 452.736 23.6162 451.811 23.4055 450.828C23.1948 449.845 23.2025 448.828 23.4281 447.848C23.6537 446.868 24.0917 445.949 24.7111 445.157C25.3305 444.365 26.1162 443.719 27.0128 443.264C28.9188 442.19 31.1694 441.905 33.2826 442.471C30.9573 439.299 30.9239 435.335 32.9162 432.983C33.6541 432.177 34.5729 431.558 35.597 431.177C36.621 430.796 37.721 430.664 38.8062 430.791C38.8062 430.791 39.9123 430.931 44.5364 433.623C45.662 431.755 47.4066 430.34 49.467 429.625C51.1635 429.114 52.967 429.075 54.6841 429.512C58.5686 430.604 61.507 434.802 62.1733 440.059C62.1733 440.059 65.8845 434.615 72.0944 437.334C78.3043 440.052 78.3043 451.399 78.3043 451.399C78.3043 451.399 85.4203 450.266 89.5581 453.664C93.6958 457.062 94.6086 460.24 94.6086 460.24C94.6086 460.24 55.5969 461.153 52.6319 458.655C49.6669 456.156 34.2754 457.535 34.2754 457.535Z" fill="#8A8ABC"/>
<path d="M223.151 476.544C222.797 476.617 216.568 477.77 213.116 473.699C212.419 472.974 211.889 472.105 211.564 471.153C211.239 470.201 211.127 469.189 211.235 468.189C211.344 467.189 211.671 466.225 212.193 465.365C212.714 464.505 213.419 463.77 214.255 463.212C216.022 461.924 218.221 461.377 220.385 461.686C217.72 458.808 217.207 454.877 218.906 452.305C219.543 451.417 220.383 450.694 221.355 450.195C222.327 449.695 223.404 449.434 224.496 449.433C224.496 449.433 225.609 449.433 230.493 451.572C231.397 449.594 232.965 447.993 234.924 447.048C236.548 446.344 238.333 446.093 240.088 446.322C244.086 446.948 247.49 450.773 248.75 455.91C248.75 455.91 251.795 450.066 258.284 452.038C264.774 454.011 266.107 465.264 266.107 465.264C266.107 465.264 273.043 463.265 277.554 466.19C282.064 469.115 283.344 472.127 283.344 472.127C283.344 472.127 244.699 477.63 241.487 475.505C238.275 473.379 223.151 476.544 223.151 476.544Z" fill="#9F9FD1"/>
<path d="M390.144 436.654C391.504 364.874 392.865 293.094 394.229 221.314L404.543 421.863C401.104 422.94 397.987 424.856 395.474 427.438C392.96 430.02 391.129 433.188 390.144 436.654Z" fill="#A5A5CE"/>
<path d="M392.343 218.882C392.343 218.882 382.875 216.837 383.608 209.354C384.341 201.872 391.55 184.855 393.136 182.304C393.103 182.304 390.271 215.817 392.343 218.882Z" fill="#A5A5CE"/>
<path d="M393.909 219.129C393.909 219.129 400.412 211.946 406.529 216.33C412.645 220.714 423.772 235.452 425.185 238.104C425.185 238.104 397.58 218.889 393.909 219.129Z" fill="#A5A5CE"/>
<path d="M392.463 220.501C392.463 220.501 395.435 229.722 388.579 232.827C381.722 235.932 363.399 238.197 360.394 238.097C360.394 238.097 390.831 223.799 392.463 220.501Z" fill="#A5A5CE"/>
<path d="M120.581 432.597L124.772 221.314L135.659 433.01L120.581 432.597Z" fill="#A5A5CE"/>
<path d="M122.853 218.882C122.853 218.882 113.385 216.837 114.124 209.354C114.864 201.872 122.06 184.855 123.652 182.304C123.652 182.304 120.814 215.817 122.853 218.882Z" fill="#A5A5CE"/>
<path d="M124.452 219.129C124.452 219.129 130.955 211.946 137.072 216.33C143.188 220.714 154.315 235.452 155.728 238.104C155.735 238.104 128.13 218.889 124.452 219.129Z" fill="#A5A5CE"/>
<path d="M123.013 220.501C123.013 220.501 125.978 229.722 119.128 232.827C112.279 235.932 93.9423 238.197 90.9373 238.097C90.9373 238.097 121.38 223.799 123.013 220.501Z" fill="#A5A5CE"/>
<path d="M190.202 192.864C214.702 199.492 240.514 199.571 265.054 193.091C267.392 190.336 268.75 186.885 268.916 183.276C269.081 179.667 268.046 176.106 265.97 173.149C263.895 170.192 260.897 168.007 257.447 166.937C253.997 165.866 250.289 165.97 246.904 167.232C247.157 154.493 237.789 143.866 226.249 142.507C213.316 140.988 200.61 151.482 199.943 165.873C199.43 165.873 190.808 165.913 186.557 172.676C182.8 178.652 184.099 187.307 190.202 192.864Z" fill="#7CCBDD"/>
<path d="M516.687 198.86C534.493 203.674 553.249 203.731 571.084 199.027C572.794 197.027 573.791 194.515 573.917 191.887C574.044 189.258 573.293 186.662 571.784 184.507C570.274 182.352 568.09 180.76 565.577 179.981C563.063 179.202 560.362 179.281 557.898 180.205C558.084 170.95 551.275 163.228 542.9 162.215C533.498 161.109 524.243 168.731 523.777 179.192C523.404 179.192 517.114 179.192 514.049 184.136C511.31 188.513 512.277 194.803 516.687 198.86Z" fill="#7CCBDD"/>
<path d="M473.312 241.569C483.535 244.337 494.306 244.372 504.548 241.669C505.526 240.518 506.095 239.074 506.164 237.565C506.233 236.056 505.799 234.566 504.929 233.331C504.06 232.095 502.804 231.184 501.36 230.739C499.916 230.295 498.366 230.342 496.952 230.875C497.058 225.545 493.154 221.127 488.343 220.561C482.946 219.895 477.642 224.306 477.363 230.309C477.149 230.309 473.551 230.309 471.779 233.147C470.227 235.646 470.766 239.257 473.312 241.569Z" fill="#7CCBDD"/>
<path d="M390.264 158.524C400.487 161.285 411.255 161.318 421.494 158.617C422.469 157.469 423.035 156.029 423.104 154.524C423.173 153.019 422.741 151.533 421.876 150.3C421.011 149.067 419.761 148.155 418.322 147.708C416.883 147.262 415.336 147.304 413.925 147.83C414.031 142.5 410.12 138.076 405.309 137.51C399.912 136.877 394.615 141.254 394.335 147.264C394.122 147.264 390.524 147.264 388.752 150.102C387.173 152.601 387.719 156.219 390.264 158.524Z" fill="#7CCBDD"/>
<path d="M299.302 218.456C309.525 221.224 320.296 221.258 330.538 218.556C331.511 217.406 332.076 215.965 332.145 214.46C332.213 212.954 331.78 211.469 330.915 210.236C330.049 209.002 328.799 208.09 327.36 207.643C325.921 207.195 324.374 207.237 322.962 207.762C323.068 202.432 319.164 198.014 314.353 197.448C308.956 196.782 303.652 201.192 303.373 207.196C303.159 207.196 299.561 207.196 297.789 210.034C296.217 212.532 296.756 216.144 299.302 218.456Z" fill="#7CCBDD"/>
<path d="M43.7102 218.456C53.9314 221.224 64.7007 221.259 74.9395 218.556C75.9178 217.407 76.4871 215.967 76.558 214.46C76.6289 212.953 76.1974 211.465 75.3313 210.23C74.4652 208.995 73.2135 208.083 71.7726 207.636C70.3317 207.189 68.7833 207.233 67.3704 207.762C67.477 202.432 63.5658 198.014 58.7551 197.448C53.3581 196.782 48.0544 201.192 47.7746 207.196C47.5614 207.196 43.97 207.196 42.191 210.034C40.6185 212.532 41.1583 216.144 43.7102 218.456Z" fill="#7CCBDD"/>
<path d="M374.66 456.383C374.66 456.383 328.019 464.631 323.035 468.855C318.051 473.079 302.38 486.492 302.027 493.734C301.674 500.976 305.651 505.127 306.731 507.459C307.81 509.791 328.512 509.805 328.512 509.805L493.227 511.204H560.603C560.603 511.204 575.841 486.552 565.027 470.654C565.027 470.654 552.441 455.996 550.735 456.383C549.029 456.769 511.95 426.134 482.693 426.473C453.436 426.813 410.22 425.141 410.56 426.473C410.9 427.806 380.277 442.411 374.66 456.383Z" fill="#AAAACC"/>
<path d="M351.719 528.214C363.605 528.214 373.24 518.579 373.24 506.693C373.24 494.808 363.605 485.172 351.719 485.172C339.833 485.172 330.198 494.808 330.198 506.693C330.198 518.579 339.833 528.214 351.719 528.214Z" fill="#BABAE5"/>
<path d="M351.719 522.744C360.061 522.744 366.824 515.981 366.824 507.639C366.824 499.297 360.061 492.535 351.719 492.535C343.377 492.535 336.614 499.297 336.614 507.639C336.614 515.981 343.377 522.744 351.719 522.744Z" fill="#8A8ABC"/>
<path d="M511.837 528.214C523.723 528.214 533.358 518.579 533.358 506.693C533.358 494.808 523.723 485.172 511.837 485.172C499.951 485.172 490.315 494.808 490.315 506.693C490.315 518.579 499.951 528.214 511.837 528.214Z" fill="#BABAE5"/>
<path d="M511.837 522.744C520.179 522.744 526.942 515.981 526.942 507.639C526.942 499.297 520.179 492.535 511.837 492.535C503.495 492.535 496.732 499.297 496.732 507.639C496.732 515.981 503.495 522.744 511.837 522.744Z" fill="#8A8ABC"/>
<path d="M448.665 428.912L439.137 506.6L383.395 507.459C383.395 507.459 369.023 482.267 370.415 474.106C371.808 465.944 400.565 444.163 404.543 440.758C408.521 437.354 419.295 430.211 419.295 430.211L448.665 428.912Z" fill="#61BAD6"/>
<path d="M452.183 428.912L441.802 506.68L477.589 507.446L514.102 459.974L517.507 440.745C517.507 440.745 497.518 429.985 484.392 428.899C471.266 427.813 452.183 428.912 452.183 428.912Z" fill="#61BAD6"/>
<path d="M448.579 432.457L443.795 471.427H379.63C382.728 463.558 406.162 445.822 409.534 442.937C413.052 439.926 422.586 433.609 422.586 433.609L448.579 432.457Z" fill="#407C89"/>
<path d="M509.505 442.937L506.486 459.947L497.665 471.427H446.493L451.69 432.457C451.69 432.457 468.548 431.497 480.194 432.457C491.841 433.416 509.505 442.937 509.505 442.937Z" fill="#407C89"/>
<path d="M526.582 443.144C526.582 443.144 552.914 459.254 552.568 459.987C552.221 460.72 537.909 459.987 537.909 459.987L528.381 450.879L526.582 443.144Z" fill="#61BAD6"/>
<path d="M126.697 418.232L95.3681 415.553V420.39L101.591 483.993L121.487 485.945L126.697 418.232Z" fill="#AAAACC"/>
<path d="M124.838 422.076L97.2205 419.717V423.982L102.704 480.062L120.248 481.781L124.838 422.076Z" fill="#8A8ABC"/>
<path d="M126.644 418.858L137.112 419.691L133.48 483.573L131.875 485.945H121.487L126.644 418.858Z" fill="#AAAACC"/>
<path d="M126.991 422.483L136.086 423.229L132.934 480.209L131.541 482.327H122.506L126.991 422.483Z" fill="#8A8ABC"/>
<path d="M95.3681 415.553L93.7291 412.302L114.931 379.241C114.931 379.241 127.484 386.077 127.484 386.917C127.484 387.756 124.818 393.053 124.818 393.053L110.586 416.206L95.3681 415.553Z" fill="#AAAACC"/>
<path d="M98.1266 414.014L96.7474 411.262L114.691 383.279C114.691 383.279 125.318 389.062 125.318 389.768C125.318 390.475 123.079 394.965 123.079 394.965L111.033 414.567L98.1266 414.014Z" fill="#8A8ABC"/>
<path d="M123.859 417.326C123.859 417.326 120.374 412.442 117.722 411.882C115.071 411.322 108.094 413.415 106.702 413.554C105.309 413.694 97.2205 415.633 97.2205 415.633L123.872 418.232L123.859 417.326Z" fill="#407C89"/>
<path d="M45.6451 30.4793V1.40543H64.555V5.82045H50.912V13.7135H63.5755V18.1286H50.912V26.0642H64.6686V30.4793H45.6451Z" fill="white"/>
<path d="M80.7463 8.67389V12.6488H67.8558V8.67389H80.7463ZM71.0784 30.4793V6.61543C71.0784 5.14849 71.3813 3.92762 71.987 2.95281C72.6022 1.97801 73.4256 1.24927 74.4572 0.766595C75.4888 0.283923 76.634 0.0425876 77.8928 0.0425876C78.7825 0.0425876 79.5727 0.113569 80.2636 0.255533C80.9545 0.397494 81.4656 0.52526 81.7969 0.63883L80.7747 4.61377C80.557 4.54752 80.2826 4.48127 79.9513 4.41502C79.6201 4.33931 79.2509 4.30145 78.844 4.30145C77.8881 4.30145 77.2114 4.53332 76.8139 4.99707C76.4258 5.45135 76.2318 6.10437 76.2318 6.95614V30.4793H71.0784Z" fill="white"/>
<path d="M95.8161 8.67389V12.6488H82.9255V8.67389H95.8161ZM86.1481 30.4793V6.61543C86.1481 5.14849 86.451 3.92762 87.0567 2.95281C87.6719 1.97801 88.4953 1.24927 89.527 0.766595C90.5586 0.283923 91.7038 0.0425876 92.9625 0.0425876C93.8522 0.0425876 94.6425 0.113569 95.3334 0.255533C96.0243 0.397494 96.5354 0.52526 96.8666 0.63883L95.8445 4.61377C95.6268 4.54752 95.3523 4.48127 95.0211 4.41502C94.6898 4.33931 94.3207 4.30145 93.9137 4.30145C92.9578 4.30145 92.2811 4.53332 91.8836 4.99707C91.4956 5.45135 91.3015 6.10437 91.3015 6.95614V30.4793H86.1481Z" fill="white"/>
<path d="M99.8408 30.4793V8.67389H104.98V30.4793H99.8408ZM102.425 5.57911C101.611 5.57911 100.91 5.30938 100.324 4.76993C99.7367 4.22101 99.4433 3.56325 99.4433 2.79665C99.4433 2.02059 99.7367 1.36284 100.324 0.823379C100.91 0.27446 101.611 0 102.425 0C103.248 0 103.948 0.27446 104.526 0.823379C105.113 1.36284 105.406 2.02059 105.406 2.79665C105.406 3.56325 105.113 4.22101 104.526 4.76993C103.948 5.30938 103.248 5.57911 102.425 5.57911Z" fill="white"/>
<path d="M119.776 30.9052C117.6 30.9052 115.73 30.4272 114.169 29.4713C112.617 28.5155 111.419 27.1952 110.577 25.5106C109.744 23.8165 109.328 21.8669 109.328 19.6618C109.328 17.4471 109.754 15.4928 110.605 13.7987C111.457 12.0952 112.659 10.7702 114.211 9.82378C115.773 8.8679 117.619 8.38996 119.748 8.38996C121.518 8.38996 123.084 8.71648 124.447 9.3695C125.82 10.0131 126.913 10.9264 127.727 12.1094C128.541 13.2829 129.004 14.6552 129.118 16.2263H124.206C124.007 15.1758 123.534 14.3003 122.786 13.6C122.048 12.8902 121.059 12.5353 119.819 12.5353C118.769 12.5353 117.846 12.8192 117.051 13.387C116.256 13.9454 115.636 14.7499 115.191 15.8004C114.756 16.8509 114.538 18.1096 114.538 19.5766C114.538 21.0624 114.756 22.3401 115.191 23.4096C115.626 24.4695 116.237 25.2882 117.022 25.8655C117.817 26.4333 118.75 26.7173 119.819 26.7173C120.576 26.7173 121.253 26.5753 121.849 26.2914C122.455 25.998 122.961 25.5768 123.368 25.0279C123.775 24.479 124.054 23.8118 124.206 23.0263H129.118C128.995 24.5689 128.541 25.9365 127.755 27.129C126.969 28.312 125.9 29.2395 124.547 29.9114C123.193 30.5739 121.603 30.9052 119.776 30.9052Z" fill="white"/>
<path d="M133.338 30.4793V8.67389H138.477V30.4793H133.338ZM135.922 5.57911C135.108 5.57911 134.407 5.30938 133.821 4.76993C133.234 4.22101 132.94 3.56325 132.94 2.79665C132.94 2.02059 133.234 1.36284 133.821 0.823379C134.407 0.27446 135.108 0 135.922 0C136.745 0 137.445 0.27446 138.023 0.823379C138.61 1.36284 138.903 2.02059 138.903 2.79665C138.903 3.56325 138.61 4.22101 138.023 4.76993C137.445 5.30938 136.745 5.57911 135.922 5.57911Z" fill="white"/>
<path d="M153.415 30.9052C151.229 30.9052 149.341 30.4509 147.751 29.5423C146.17 28.6243 144.954 27.3277 144.102 25.6526C143.251 23.9679 142.825 21.9852 142.825 19.7043C142.825 17.4613 143.251 15.4928 144.102 13.7987C144.964 12.0952 146.166 10.7702 147.708 9.82378C149.251 8.8679 151.064 8.38996 153.146 8.38996C154.49 8.38996 155.758 8.60764 156.95 9.04299C158.152 9.46887 159.212 10.1314 160.13 11.0305C161.058 11.9296 161.787 13.0747 162.317 14.4659C162.847 15.8477 163.112 17.4945 163.112 19.4062V20.982H145.238V17.5181H158.186C158.176 16.5339 157.963 15.6584 157.547 14.8918C157.13 14.1158 156.548 13.5053 155.801 13.0605C155.062 12.6157 154.201 12.3933 153.217 12.3933C152.166 12.3933 151.243 12.6488 150.448 13.1599C149.653 13.6615 149.033 14.324 148.589 15.1474C148.153 15.9613 147.931 16.8556 147.921 17.8304V20.8542C147.921 22.1224 148.153 23.2108 148.617 24.1194C149.081 25.0185 149.729 25.7093 150.562 26.192C151.395 26.6652 152.37 26.9018 153.486 26.9018C154.234 26.9018 154.911 26.7977 155.517 26.5895C156.122 26.3718 156.648 26.0548 157.092 25.6384C157.537 25.2219 157.873 24.7061 158.1 24.091L162.899 24.6304C162.596 25.8986 162.019 27.0059 161.167 27.9523C160.325 28.8893 159.246 29.618 157.93 30.1386C156.614 30.6496 155.11 30.9052 153.415 30.9052Z" fill="white"/>
<path d="M172.599 17.7027V30.4793H167.46V8.67389H172.372V12.3791H172.627C173.129 11.1582 173.928 10.1881 175.026 9.46887C176.134 8.7496 177.501 8.38996 179.129 8.38996C180.634 8.38996 181.945 8.71174 183.062 9.3553C184.188 9.99887 185.059 10.9311 185.674 12.152C186.298 13.3728 186.606 14.854 186.597 16.5954V30.4793H181.457V17.3904C181.457 15.9329 181.079 14.7925 180.322 13.9691C179.574 13.1457 178.538 12.734 177.213 12.734C176.314 12.734 175.514 12.9328 174.813 13.3302C174.122 13.7183 173.578 14.2814 173.181 15.0196C172.793 15.7578 172.599 16.6522 172.599 17.7027Z" fill="white"/>
<path d="M202.71 8.67389V12.6488H190.174V8.67389H202.71ZM193.269 3.44968H198.408V23.9206C198.408 24.6115 198.512 25.1415 198.721 25.5106C198.938 25.8702 199.222 26.1163 199.572 26.2488C199.923 26.3813 200.311 26.4475 200.736 26.4475C201.058 26.4475 201.352 26.4239 201.617 26.3766C201.891 26.3292 202.099 26.2867 202.241 26.2488L203.107 30.2663C202.833 30.361 202.44 30.4651 201.929 30.5786C201.427 30.6922 200.812 30.7585 200.083 30.7774C198.796 30.8152 197.637 30.6212 196.605 30.1953C195.574 29.76 194.755 29.088 194.149 28.1795C193.553 27.2709 193.26 26.1352 193.269 24.7724V3.44968Z" fill="white"/>
<path d="M212.616 1.40543V30.4793H207.476V1.40543H212.616Z" fill="white"/>
<path d="M221.094 38.6563C220.394 38.6563 219.746 38.5995 219.15 38.4859C218.563 38.3818 218.094 38.2588 217.744 38.1168L218.937 34.1135C219.684 34.3312 220.352 34.4353 220.938 34.4258C221.525 34.4164 222.041 34.2318 222.486 33.8722C222.94 33.522 223.323 32.9352 223.636 32.1118L224.076 30.9335L216.168 8.67389H221.62L226.645 25.1415H226.873L231.912 8.67389H237.378L228.647 33.1198C228.24 34.2744 227.701 35.2634 227.029 36.0868C226.357 36.9196 225.533 37.5537 224.558 37.9891C223.593 38.4339 222.438 38.6563 221.094 38.6563Z" fill="white"/>
<path d="M250.851 30.4793V8.67389H255.763V12.3791H256.018C256.473 11.1298 257.225 10.155 258.276 9.45468C259.326 8.74487 260.58 8.38996 262.038 8.38996C263.514 8.38996 264.759 8.7496 265.771 9.46887C266.794 10.1787 267.513 11.1488 267.929 12.3791H268.156C268.639 11.1677 269.453 10.2023 270.598 9.48307C271.753 8.75433 273.121 8.38996 274.701 8.38996C276.708 8.38996 278.345 9.02406 279.613 10.2923C280.881 11.5604 281.515 13.4107 281.515 15.843V30.4793H276.362V16.638C276.362 15.2846 276.002 14.2956 275.283 13.671C274.564 13.0369 273.684 12.7198 272.643 12.7198C271.403 12.7198 270.433 13.1078 269.732 13.8839C269.041 14.6505 268.696 15.649 268.696 16.8793V30.4793H263.656V16.425C263.656 15.2988 263.315 14.3997 262.634 13.7277C261.962 13.0558 261.082 12.7198 259.993 12.7198C259.255 12.7198 258.583 12.9091 257.977 13.2877C257.372 13.6568 256.889 14.182 256.529 14.8634C256.17 15.5354 255.99 16.3209 255.99 17.22V30.4793H250.851Z" fill="white"/>
<path d="M293.004 30.9194C291.622 30.9194 290.378 30.6733 289.27 30.1812C288.173 29.6796 287.302 28.9413 286.658 27.9665C286.024 26.9917 285.707 25.7898 285.707 24.3607C285.707 23.1304 285.934 22.113 286.388 21.3085C286.843 20.5041 287.463 19.8605 288.248 19.3778C289.034 18.8952 289.919 18.5308 290.903 18.2847C291.897 18.0292 292.924 17.8446 293.984 17.7311C295.261 17.5986 296.298 17.4803 297.093 17.3762C297.888 17.2626 298.465 17.0922 298.825 16.8651C299.194 16.6285 299.378 16.2641 299.378 15.772V15.6868C299.378 14.6174 299.061 13.7893 298.427 13.2025C297.793 12.6157 296.88 12.3223 295.687 12.3223C294.429 12.3223 293.43 12.5968 292.692 13.1457C291.963 13.6946 291.471 14.3429 291.215 15.0906L286.417 14.4092C286.795 13.0842 287.42 11.9769 288.291 11.0872C289.162 10.1881 290.226 9.51619 291.485 9.07138C292.744 8.6171 294.135 8.38996 295.659 8.38996C296.709 8.38996 297.755 8.513 298.796 8.75906C299.837 9.00513 300.789 9.41209 301.65 9.97994C302.511 10.5383 303.202 11.3002 303.723 12.2655C304.253 13.2309 304.518 14.4375 304.518 15.8856V30.4793H299.577V27.4839H299.407C299.095 28.0896 298.654 28.6574 298.087 29.1874C297.528 29.7079 296.823 30.1291 295.971 30.4509C295.129 30.7632 294.14 30.9194 293.004 30.9194ZM294.339 27.1432C295.37 27.1432 296.265 26.9397 297.022 26.5327C297.779 26.1163 298.361 25.5674 298.768 24.886C299.184 24.2045 299.393 23.4616 299.393 22.6572V20.0876C299.232 20.2201 298.957 20.3432 298.569 20.4567C298.191 20.5703 297.765 20.6697 297.292 20.7549C296.818 20.84 296.35 20.9158 295.886 20.982C295.422 21.0483 295.02 21.105 294.679 21.1524C293.913 21.2565 293.227 21.4268 292.621 21.6634C292.015 21.9 291.537 22.2313 291.187 22.6572C290.837 23.0736 290.662 23.613 290.662 24.2755C290.662 25.2219 291.007 25.9365 291.698 26.4192C292.389 26.9018 293.269 27.1432 294.339 27.1432Z" fill="white"/>
<path d="M314.824 17.7027V30.4793H309.685V8.67389H314.597V12.3791H314.853C315.354 11.1582 316.154 10.1881 317.252 9.46887C318.359 8.7496 319.727 8.38996 321.355 8.38996C322.86 8.38996 324.171 8.71174 325.287 9.3553C326.414 9.99887 327.284 10.9311 327.9 12.152C328.524 13.3728 328.832 14.854 328.822 16.5954V30.4793H323.683V17.3904C323.683 15.9329 323.305 14.7925 322.547 13.9691C321.8 13.1457 320.763 12.734 319.438 12.734C318.539 12.734 317.739 12.9328 317.039 13.3302C316.348 13.7183 315.804 14.2814 315.406 15.0196C315.018 15.7578 314.824 16.6522 314.824 17.7027Z" fill="white"/>
<path d="M340.322 30.9194C338.94 30.9194 337.695 30.6733 336.588 30.1812C335.49 29.6796 334.619 28.9413 333.976 27.9665C333.342 26.9917 333.025 25.7898 333.025 24.3607C333.025 23.1304 333.252 22.113 333.706 21.3085C334.16 20.5041 334.78 19.8605 335.566 19.3778C336.351 18.8952 337.236 18.5308 338.22 18.2847C339.214 18.0292 340.241 17.8446 341.301 17.7311C342.579 17.5986 343.615 17.4803 344.41 17.3762C345.205 17.2626 345.783 17.0922 346.142 16.8651C346.511 16.6285 346.696 16.2641 346.696 15.772V15.6868C346.696 14.6174 346.379 13.7893 345.745 13.2025C345.111 12.6157 344.197 12.3223 343.005 12.3223C341.746 12.3223 340.747 12.5968 340.009 13.1457C339.281 13.6946 338.788 14.3429 338.533 15.0906L333.734 14.4092C334.113 13.0842 334.738 11.9769 335.608 11.0872C336.479 10.1881 337.544 9.51619 338.803 9.07138C340.061 8.6171 341.453 8.38996 342.976 8.38996C344.027 8.38996 345.073 8.513 346.114 8.75906C347.155 9.00513 348.106 9.41209 348.967 9.97994C349.829 10.5383 350.52 11.3002 351.04 12.2655C351.57 13.2309 351.835 14.4375 351.835 15.8856V30.4793H346.895V27.4839H346.724C346.412 28.0896 345.972 28.6574 345.404 29.1874C344.846 29.7079 344.14 30.1291 343.289 30.4509C342.446 30.7632 341.457 30.9194 340.322 30.9194ZM341.656 27.1432C342.688 27.1432 343.582 26.9397 344.339 26.5327C345.096 26.1163 345.678 25.5674 346.085 24.886C346.502 24.2045 346.71 23.4616 346.71 22.6572V20.0876C346.549 20.2201 346.275 20.3432 345.887 20.4567C345.508 20.5703 345.082 20.6697 344.609 20.7549C344.136 20.84 343.667 20.9158 343.204 20.982C342.74 21.0483 342.338 21.105 341.997 21.1524C341.23 21.2565 340.544 21.4268 339.938 21.6634C339.333 21.9 338.855 22.2313 338.504 22.6572C338.154 23.0736 337.979 23.613 337.979 24.2755C337.979 25.2219 338.325 25.9365 339.016 26.4192C339.706 26.9018 340.587 27.1432 341.656 27.1432Z" fill="white"/>
<path d="M366.486 39.1106C364.64 39.1106 363.055 38.8598 361.73 38.3582C360.405 37.866 359.34 37.2035 358.536 36.3707C357.731 35.5379 357.173 34.6151 356.861 33.6024L361.489 32.4809C361.697 32.9068 362 33.328 362.397 33.7444C362.795 34.1703 363.33 34.5205 364.002 34.7949C364.683 35.0788 365.54 35.2208 366.571 35.2208C368.029 35.2208 369.235 34.8659 370.191 34.1561C371.147 33.4557 371.625 32.3011 371.625 30.6922V26.5611H371.37C371.105 27.0911 370.717 27.6353 370.206 28.1937C369.704 28.7521 369.037 29.2205 368.204 29.5991C367.38 29.9777 366.344 30.167 365.095 30.167C363.42 30.167 361.901 29.7742 360.538 28.9887C359.184 28.1937 358.105 27.0107 357.301 25.4396C356.506 23.8591 356.108 21.8811 356.108 19.5056C356.108 17.1112 356.506 15.0906 357.301 13.4438C358.105 11.7876 359.189 10.5336 360.552 9.68182C361.915 8.82058 363.434 8.38996 365.109 8.38996C366.387 8.38996 367.437 8.60764 368.261 9.04299C369.093 9.46887 369.756 9.98467 370.248 10.5904C370.74 11.1866 371.114 11.7497 371.37 12.2797H371.654V8.67389H376.722V30.8342C376.722 32.6986 376.277 34.2413 375.387 35.4621C374.498 36.683 373.281 37.5963 371.739 38.202C370.196 38.8077 368.445 39.1106 366.486 39.1106ZM366.529 26.1352C367.617 26.1352 368.545 25.8702 369.311 25.3402C370.078 24.8103 370.66 24.0484 371.057 23.0546C371.455 22.0609 371.654 20.8684 371.654 19.4772C371.654 18.1049 371.455 16.903 371.057 15.8714C370.669 14.8398 370.092 14.0401 369.325 13.4722C368.568 12.8949 367.636 12.6062 366.529 12.6062C365.383 12.6062 364.428 12.9044 363.661 13.5006C362.894 14.0968 362.317 14.9155 361.929 15.9565C361.541 16.9881 361.347 18.1617 361.347 19.4772C361.347 20.8116 361.541 21.9805 361.929 22.9837C362.326 23.9774 362.908 24.7535 363.675 25.3118C364.451 25.8608 365.402 26.1352 366.529 26.1352Z" fill="white"/>
<path d="M391.643 30.9052C389.456 30.9052 387.568 30.4509 385.978 29.5423C384.397 28.6243 383.181 27.3277 382.329 25.6526C381.478 23.9679 381.052 21.9852 381.052 19.7043C381.052 17.4613 381.478 15.4928 382.329 13.7987C383.191 12.0952 384.393 10.7702 385.935 9.82378C387.478 8.8679 389.291 8.38996 391.373 8.38996C392.717 8.38996 393.985 8.60764 395.177 9.04299C396.379 9.46887 397.439 10.1314 398.358 11.0305C399.285 11.9296 400.014 13.0747 400.544 14.4659C401.074 15.8477 401.339 17.4945 401.339 19.4062V20.982H383.465V17.5181H396.413C396.403 16.5339 396.19 15.6584 395.774 14.8918C395.357 14.1158 394.775 13.5053 394.028 13.0605C393.289 12.6157 392.428 12.3933 391.444 12.3933C390.393 12.3933 389.47 12.6488 388.675 13.1599C387.88 13.6615 387.26 14.324 386.816 15.1474C386.38 15.9613 386.158 16.8556 386.148 17.8304V20.8542C386.148 22.1224 386.38 23.2108 386.844 24.1194C387.308 25.0185 387.956 25.7093 388.789 26.192C389.622 26.6652 390.597 26.9018 391.714 26.9018C392.461 26.9018 393.138 26.7977 393.744 26.5895C394.349 26.3718 394.875 26.0548 395.319 25.6384C395.764 25.2219 396.1 24.7061 396.327 24.091L401.126 24.6304C400.823 25.8986 400.246 27.0059 399.394 27.9523C398.552 28.8893 397.473 29.618 396.157 30.1386C394.841 30.6496 393.337 30.9052 391.643 30.9052Z" fill="white"/>
<path d="M425.115 30.9052C422.938 30.9052 421.069 30.4272 419.507 29.4713C417.955 28.5155 416.758 27.1952 415.915 25.5106C415.082 23.8165 414.666 21.8669 414.666 19.6618C414.666 17.4471 415.092 15.4928 415.944 13.7987C416.795 12.0952 417.997 10.7702 419.55 9.82378C421.111 8.8679 422.957 8.38996 425.086 8.38996C426.856 8.38996 428.423 8.71648 429.785 9.3695C431.158 10.0131 432.251 10.9264 433.065 12.1094C433.879 13.2829 434.342 14.6552 434.456 16.2263H429.544C429.345 15.1758 428.872 14.3003 428.124 13.6C427.386 12.8902 426.397 12.5353 425.157 12.5353C424.107 12.5353 423.184 12.8192 422.389 13.387C421.594 13.9454 420.974 14.7499 420.529 15.8004C420.094 16.8509 419.876 18.1096 419.876 19.5766C419.876 21.0624 420.094 22.3401 420.529 23.4096C420.965 24.4695 421.575 25.2882 422.361 25.8655C423.156 26.4333 424.088 26.7173 425.157 26.7173C425.914 26.7173 426.591 26.5753 427.187 26.2914C427.793 25.998 428.299 25.5768 428.706 25.0279C429.113 24.479 429.393 23.8118 429.544 23.0263H434.456C434.333 24.5689 433.879 25.9365 433.093 27.129C432.308 28.312 431.238 29.2395 429.885 29.9114C428.531 30.5739 426.941 30.9052 425.115 30.9052Z" fill="white"/>
<path d="M448.188 30.9052C446.058 30.9052 444.213 30.4367 442.651 29.4997C441.089 28.5628 439.878 27.252 439.017 25.5674C438.165 23.8828 437.739 21.9142 437.739 19.6618C437.739 17.4093 438.165 15.436 439.017 13.7419C439.878 12.0479 441.089 10.7323 442.651 9.79539C444.213 8.85844 446.058 8.38996 448.188 8.38996C450.317 8.38996 452.163 8.85844 453.725 9.79539C455.286 10.7323 456.493 12.0479 457.345 13.7419C458.206 15.436 458.637 17.4093 458.637 19.6618C458.637 21.9142 458.206 23.8828 457.345 25.5674C456.493 27.252 455.286 28.5628 453.725 29.4997C452.163 30.4367 450.317 30.9052 448.188 30.9052ZM448.216 26.7883C449.371 26.7883 450.336 26.4712 451.112 25.8371C451.888 25.1935 452.466 24.3323 452.844 23.2534C453.232 22.1745 453.426 20.9725 453.426 19.6476C453.426 18.3131 453.232 17.1064 452.844 16.0275C452.466 14.9391 451.888 14.0732 451.112 13.4296C450.336 12.7861 449.371 12.4643 448.216 12.4643C447.033 12.4643 446.049 12.7861 445.263 13.4296C444.487 14.0732 443.905 14.9391 443.517 16.0275C443.139 17.1064 442.949 18.3131 442.949 19.6476C442.949 20.9725 443.139 22.1745 443.517 23.2534C443.905 24.3323 444.487 25.1935 445.263 25.8371C446.049 26.4712 447.033 26.7883 448.216 26.7883Z" fill="white"/>
<path d="M462.998 30.4793V8.67389H467.911V12.3791H468.166C468.62 11.1298 469.373 10.155 470.423 9.45468C471.474 8.74487 472.728 8.38996 474.185 8.38996C475.662 8.38996 476.906 8.7496 477.919 9.46887C478.941 10.1787 479.661 11.1488 480.077 12.3791H480.304C480.787 11.1677 481.601 10.2023 482.746 9.48307C483.901 8.75433 485.268 8.38996 486.849 8.38996C488.855 8.38996 490.493 9.02406 491.761 10.2923C493.029 11.5604 493.663 13.4107 493.663 15.843V30.4793H488.51V16.638C488.51 15.2846 488.15 14.2956 487.431 13.671C486.712 13.0369 485.831 12.7198 484.79 12.7198C483.551 12.7198 482.58 13.1078 481.88 13.8839C481.189 14.6505 480.844 15.649 480.844 16.8793V30.4793H475.804V16.425C475.804 15.2988 475.463 14.3997 474.782 13.7277C474.11 13.0558 473.23 12.7198 472.141 12.7198C471.403 12.7198 470.731 12.9091 470.125 13.2877C469.52 13.6568 469.037 14.182 468.677 14.8634C468.318 15.5354 468.138 16.3209 468.138 17.22V30.4793H462.998Z" fill="white"/>
<path d="M498.877 38.6563V8.67389H503.931V12.2797H504.229C504.494 11.7497 504.868 11.1866 505.351 10.5904C505.833 9.98467 506.486 9.46887 507.31 9.04299C508.133 8.60764 509.184 8.38996 510.461 8.38996C512.146 8.38996 513.665 8.82058 515.019 9.68182C516.381 10.5336 517.46 11.7971 518.255 13.4722C519.06 15.1379 519.462 17.1821 519.462 19.605C519.462 21.9994 519.069 24.0342 518.284 25.7093C517.498 27.3845 516.429 28.6622 515.075 29.5423C513.722 30.4225 512.189 30.8626 510.476 30.8626C509.226 30.8626 508.19 30.6544 507.367 30.2379C506.543 29.8215 505.881 29.3199 505.379 28.7331C504.887 28.1369 504.504 27.5738 504.229 27.0438H504.016V38.6563H498.877ZM503.917 19.5766C503.917 20.9867 504.116 22.2218 504.513 23.2818C504.92 24.3418 505.502 25.1699 506.259 25.7661C507.026 26.3529 507.953 26.6463 509.042 26.6463C510.178 26.6463 511.129 26.3434 511.895 25.7377C512.662 25.1226 513.239 24.285 513.627 23.225C514.025 22.1556 514.224 20.9394 514.224 19.5766C514.224 18.2232 514.03 17.0213 513.642 15.9707C513.253 14.9202 512.676 14.0968 511.91 13.5006C511.143 12.9044 510.187 12.6062 509.042 12.6062C507.944 12.6062 507.012 12.8949 506.245 13.4722C505.478 14.0495 504.896 14.8587 504.499 15.8998C504.111 16.9408 503.917 18.1664 503.917 19.5766Z" fill="white"/>
<path d="M529.002 1.40543V30.4793H523.863V1.40543H529.002Z" fill="white"/>
<path d="M540.562 30.9194C539.18 30.9194 537.936 30.6733 536.828 30.1812C535.73 29.6796 534.86 28.9413 534.216 27.9665C533.582 26.9917 533.265 25.7898 533.265 24.3607C533.265 23.1304 533.492 22.113 533.946 21.3085C534.401 20.5041 535.021 19.8605 535.806 19.3778C536.592 18.8952 537.477 18.5308 538.461 18.2847C539.455 18.0292 540.482 17.8446 541.542 17.7311C542.819 17.5986 543.856 17.4803 544.651 17.3762C545.446 17.2626 546.023 17.0922 546.383 16.8651C546.752 16.6285 546.936 16.2641 546.936 15.772V15.6868C546.936 14.6174 546.619 13.7893 545.985 13.2025C545.351 12.6157 544.438 12.3223 543.245 12.3223C541.986 12.3223 540.988 12.5968 540.25 13.1457C539.521 13.6946 539.029 14.3429 538.773 15.0906L533.975 14.4092C534.353 13.0842 534.978 11.9769 535.849 11.0872C536.719 10.1881 537.784 9.51619 539.043 9.07138C540.302 8.6171 541.693 8.38996 543.217 8.38996C544.267 8.38996 545.313 8.513 546.354 8.75906C547.395 9.00513 548.346 9.41209 549.208 9.97994C550.069 10.5383 550.76 11.3002 551.28 12.2655C551.81 13.2309 552.075 14.4375 552.075 15.8856V30.4793H547.135V27.4839H546.965C546.652 28.0896 546.212 28.6574 545.644 29.1874C545.086 29.7079 544.381 30.1291 543.529 30.4509C542.687 30.7632 541.698 30.9194 540.562 30.9194ZM541.896 27.1432C542.928 27.1432 543.822 26.9397 544.58 26.5327C545.337 26.1163 545.919 25.5674 546.326 24.886C546.742 24.2045 546.95 23.4616 546.95 22.6572V20.0876C546.789 20.2201 546.515 20.3432 546.127 20.4567C545.748 20.5703 545.323 20.6697 544.849 20.7549C544.376 20.84 543.908 20.9158 543.444 20.982C542.98 21.0483 542.578 21.105 542.237 21.1524C541.471 21.2565 540.784 21.4268 540.179 21.6634C539.573 21.9 539.095 22.2313 538.745 22.6572C538.395 23.0736 538.219 23.613 538.219 24.2755C538.219 25.2219 538.565 25.9365 539.256 26.4192C539.947 26.9018 540.827 27.1432 541.896 27.1432Z" fill="white"/>
<path d="M557.243 30.4793V8.67389H562.382V30.4793H557.243ZM559.827 5.57911C559.013 5.57911 558.312 5.30938 557.726 4.76993C557.139 4.22101 556.846 3.56325 556.846 2.79665C556.846 2.02059 557.139 1.36284 557.726 0.823379C558.312 0.27446 559.013 0 559.827 0C560.65 0 561.351 0.27446 561.928 0.823379C562.515 1.36284 562.808 2.02059 562.808 2.79665C562.808 3.56325 562.515 4.22101 561.928 4.76993C561.351 5.30938 560.65 5.57911 559.827 5.57911Z" fill="white"/>
<path d="M572.806 17.7027V30.4793H567.667V8.67389H572.579V12.3791H572.834C573.336 11.1582 574.136 10.1881 575.234 9.46887C576.341 8.7496 577.709 8.38996 579.337 8.38996C580.841 8.38996 582.152 8.71174 583.269 9.3553C584.395 9.99887 585.266 10.9311 585.881 12.152C586.506 13.3728 586.813 14.854 586.804 16.5954V30.4793H581.665V17.3904C581.665 15.9329 581.286 14.7925 580.529 13.9691C579.781 13.1457 578.745 12.734 577.42 12.734C576.521 12.734 575.721 12.9328 575.021 13.3302C574.33 13.7183 573.786 14.2814 573.388 15.0196C573 15.7578 572.806 16.6522 572.806 17.7027Z" fill="white"/>
<path d="M602.917 8.67389V12.6488H590.382V8.67389H602.917ZM593.476 3.44968H598.616V23.9206C598.616 24.6115 598.72 25.1415 598.928 25.5106C599.146 25.8702 599.43 26.1163 599.78 26.2488C600.13 26.3813 600.518 26.4475 600.944 26.4475C601.266 26.4475 601.559 26.4239 601.824 26.3766C602.099 26.3292 602.307 26.2867 602.449 26.2488L603.315 30.2663C603.04 30.361 602.647 30.4651 602.136 30.5786C601.635 30.6922 601.02 30.7585 600.291 30.7774C599.004 30.8152 597.844 30.6212 596.813 30.1953C595.781 29.76 594.962 29.088 594.357 28.1795C593.76 27.2709 593.467 26.1352 593.476 24.7724V3.44968Z" fill="white"/>
<path d="M624.138 14.4375L619.453 14.9486C619.32 14.4754 619.088 14.0306 618.757 13.6142C618.435 13.1977 618 12.8618 617.451 12.6062C616.902 12.3507 616.23 12.2229 615.435 12.2229C614.366 12.2229 613.466 12.4548 612.738 12.9186C612.018 13.3823 611.664 13.9833 611.673 14.7215C611.664 15.3556 611.895 15.8714 612.369 16.2689C612.851 16.6664 613.646 16.9929 614.754 17.2484L618.473 18.0434C620.536 18.4882 622.07 19.1933 623.073 20.1586C624.086 21.124 624.597 22.3874 624.606 23.949C624.597 25.3213 624.194 26.5327 623.399 27.5832C622.614 28.6243 621.521 29.4382 620.12 30.025C618.719 30.6118 617.11 30.9052 615.293 30.9052C612.624 30.9052 610.476 30.3468 608.848 29.23C607.22 28.1038 606.25 26.5375 605.938 24.5311L610.949 24.0484C611.176 25.0327 611.659 25.7756 612.397 26.2772C613.135 26.7788 614.096 27.0296 615.279 27.0296C616.5 27.0296 617.479 26.7788 618.218 26.2772C618.965 25.7756 619.339 25.1557 619.339 24.4175C619.339 23.7929 619.098 23.2771 618.615 22.8701C618.142 22.4631 617.404 22.1508 616.4 21.9331L612.681 21.1524C610.589 20.717 609.042 19.9835 608.039 18.9519C607.035 17.9109 606.539 16.5954 606.548 15.0054C606.539 13.6615 606.903 12.4974 607.641 11.5131C608.389 10.5194 609.425 9.7528 610.75 9.21334C612.085 8.66442 613.623 8.38996 615.364 8.38996C617.919 8.38996 619.931 8.93415 621.398 10.0225C622.874 11.1109 623.788 12.5826 624.138 14.4375Z" fill="white"/>
<path d="M98.1004 78.8912C96.7186 78.8912 95.474 78.6451 94.3667 78.153C93.2688 77.6514 92.3981 76.9132 91.7545 75.9384C91.1204 74.9636 90.8033 73.7616 90.8033 72.3326C90.8033 71.1022 91.0305 70.0848 91.4848 69.2804C91.9391 68.4759 92.559 67.8324 93.3445 67.3497C94.1301 66.867 95.015 66.5026 95.9993 66.2566C96.9931 66.001 98.02 65.8165 99.08 65.7029C100.358 65.5704 101.394 65.4521 102.189 65.348C102.984 65.2344 103.561 65.0641 103.921 64.8369C104.29 64.6003 104.475 64.236 104.475 63.7438V63.6587C104.475 62.5892 104.158 61.7611 103.524 61.1743C102.889 60.5875 101.976 60.2942 100.784 60.2942C99.5248 60.2942 98.5263 60.5686 97.7881 61.1175C97.0593 61.6665 96.5672 62.3148 96.3116 63.0624L91.5132 62.381C91.8917 61.056 92.5164 59.9487 93.3871 59.0591C94.2578 58.16 95.3226 57.488 96.5814 57.0432C97.8401 56.589 99.2314 56.3618 100.755 56.3618C101.806 56.3618 102.852 56.4848 103.893 56.7309C104.934 56.977 105.885 57.3839 106.746 57.9518C107.607 58.5102 108.298 59.272 108.819 60.2374C109.349 61.2027 109.614 62.4094 109.614 63.8574V78.4511H104.673V75.4557H104.503C104.191 76.0614 103.751 76.6293 103.183 77.1593C102.624 77.6798 101.919 78.1009 101.068 78.4227C100.225 78.735 99.2361 78.8912 98.1004 78.8912ZM99.4349 75.115C100.467 75.115 101.361 74.9115 102.118 74.5046C102.875 74.0882 103.457 73.5392 103.864 72.8578C104.281 72.1764 104.489 71.4335 104.489 70.629V68.0595C104.328 68.192 104.054 68.315 103.665 68.4286C103.287 68.5422 102.861 68.6415 102.388 68.7267C101.915 68.8119 101.446 68.8876 100.982 68.9538C100.519 69.0201 100.116 69.0769 99.7756 69.1242C99.009 69.2283 98.3228 69.3987 97.7171 69.6353C97.1114 69.8719 96.6334 70.2031 96.2832 70.629C95.9331 71.0454 95.758 71.5849 95.758 72.2474C95.758 73.1938 96.1034 73.9083 96.7943 74.391C97.4852 74.8737 98.3654 75.115 99.4349 75.115Z" fill="white"/>
<path d="M119.921 65.6745V78.4511H114.781V56.6457H119.694V60.3509H119.949C120.451 59.1301 121.25 58.16 122.348 57.4407C123.456 56.7214 124.823 56.3618 126.451 56.3618C127.956 56.3618 129.267 56.6836 130.384 57.3271C131.51 57.9707 132.381 58.9029 132.996 60.1238C133.62 61.3447 133.928 62.8258 133.919 64.5672V78.4511H128.779V65.3622C128.779 63.9047 128.401 62.7643 127.644 61.9409C126.896 61.1175 125.86 60.7058 124.535 60.7058C123.635 60.7058 122.836 60.9046 122.135 61.3021C121.444 61.6901 120.9 62.2532 120.503 62.9914C120.115 63.7296 119.921 64.624 119.921 65.6745Z" fill="white"/>
<path d="M147.235 78.8344C145.522 78.8344 143.989 78.3943 142.635 77.5142C141.282 76.634 140.212 75.3563 139.427 73.6812C138.641 72.006 138.249 69.9712 138.249 67.5768C138.249 65.154 138.646 63.1097 139.441 61.444C140.246 59.7689 141.329 58.5054 142.692 57.6537C144.055 56.7924 145.574 56.3618 147.249 56.3618C148.527 56.3618 149.577 56.5795 150.401 57.0148C151.224 57.4407 151.877 57.9565 152.36 58.5622C152.843 59.1585 153.217 59.7216 153.482 60.2516H153.695V49.3773H158.848V78.4511H153.794V75.0156H153.482C153.217 75.5456 152.833 76.1087 152.332 76.705C151.83 77.2918 151.168 77.7934 150.344 78.2098C149.521 78.6262 148.484 78.8344 147.235 78.8344ZM148.669 74.6181C149.757 74.6181 150.685 74.3247 151.451 73.738C152.218 73.1417 152.8 72.3136 153.198 71.2536C153.595 70.1937 153.794 68.9586 153.794 67.5484C153.794 66.1383 153.595 64.9127 153.198 63.8716C152.81 62.8306 152.232 62.0214 151.466 61.444C150.708 60.8667 149.776 60.5781 148.669 60.5781C147.524 60.5781 146.568 60.8762 145.801 61.4724C145.035 62.0687 144.457 62.8921 144.069 63.9426C143.681 64.9931 143.487 66.1951 143.487 67.5484C143.487 68.9113 143.681 70.1274 144.069 71.1969C144.467 72.2568 145.049 73.0944 145.815 73.7096C146.591 74.3153 147.543 74.6181 148.669 74.6181Z" fill="white"/>
<path d="M174.241 78.4511V56.6457H179.38V78.4511H174.241ZM176.824 53.551C176.01 53.551 175.31 53.2812 174.723 52.7418C174.137 52.1929 173.843 51.5351 173.843 50.7685C173.843 49.9924 174.137 49.3347 174.723 48.7952C175.31 48.2463 176.01 47.9718 176.824 47.9718C177.648 47.9718 178.348 48.2463 178.926 48.7952C179.512 49.3347 179.806 49.9924 179.806 50.7685C179.806 51.5351 179.512 52.1929 178.926 52.7418C178.348 53.2812 177.648 53.551 176.824 53.551Z" fill="white"/>
<path d="M184.665 78.4511V56.6457H189.577V60.3509H189.832C190.286 59.1017 191.039 58.1269 192.089 57.4265C193.14 56.7167 194.394 56.3618 195.852 56.3618C197.328 56.3618 198.573 56.7214 199.585 57.4407C200.607 58.1505 201.327 59.1206 201.743 60.3509H201.97C202.453 59.1395 203.267 58.1742 204.412 57.4549C205.567 56.7262 206.934 56.3618 208.515 56.3618C210.521 56.3618 212.159 56.9959 213.427 58.2641C214.695 59.5323 215.329 61.3825 215.329 63.8148V78.4511H210.176V64.6098C210.176 63.2564 209.816 62.2674 209.097 61.6428C208.378 61.0087 207.498 60.6917 206.456 60.6917C205.217 60.6917 204.246 61.0797 203.546 61.8557C202.855 62.6223 202.51 63.6208 202.51 64.8511V78.4511H197.47V64.3969C197.47 63.2706 197.129 62.3715 196.448 61.6996C195.776 61.0276 194.896 60.6917 193.807 60.6917C193.069 60.6917 192.397 60.8809 191.791 61.2595C191.186 61.6286 190.703 62.1539 190.343 62.8353C189.984 63.5072 189.804 64.2928 189.804 65.1918V78.4511H184.665Z" fill="white"/>
<path d="M220.543 86.6281V56.6457H225.597V60.2516H225.895C226.16 59.7216 226.534 59.1585 227.017 58.5622C227.499 57.9565 228.152 57.4407 228.976 57.0148C229.799 56.5795 230.85 56.3618 232.128 56.3618C233.812 56.3618 235.331 56.7924 236.685 57.6537C238.048 58.5054 239.126 59.7689 239.921 61.444C240.726 63.1097 241.128 65.154 241.128 67.5768C241.128 69.9712 240.735 72.006 239.95 73.6812C239.164 75.3563 238.095 76.634 236.741 77.5142C235.388 78.3943 233.855 78.8344 232.142 78.8344C230.892 78.8344 229.856 78.6262 229.033 78.2098C228.209 77.7934 227.547 77.2918 227.045 76.705C226.553 76.1087 226.17 75.5456 225.895 75.0156H225.682V86.6281H220.543ZM225.583 67.5484C225.583 68.9586 225.782 70.1937 226.179 71.2536C226.586 72.3136 227.168 73.1417 227.925 73.738C228.692 74.3247 229.619 74.6181 230.708 74.6181C231.844 74.6181 232.795 74.3153 233.561 73.7096C234.328 73.0944 234.905 72.2568 235.293 71.1969C235.691 70.1274 235.89 68.9113 235.89 67.5484C235.89 66.1951 235.696 64.9931 235.308 63.9426C234.92 62.8921 234.342 62.0687 233.576 61.4724C232.809 60.8762 231.853 60.5781 230.708 60.5781C229.61 60.5781 228.678 60.8667 227.911 61.444C227.145 62.0214 226.562 62.8306 226.165 63.8716C225.777 64.9127 225.583 66.1383 225.583 67.5484Z" fill="white"/>
<path d="M245.529 78.4511V56.6457H250.512V60.28H250.739C251.137 59.0212 251.818 58.0512 252.784 57.3697C253.759 56.6789 254.871 56.3334 256.12 56.3334C256.404 56.3334 256.721 56.3476 257.071 56.376C257.431 56.3949 257.729 56.4281 257.965 56.4754V61.2027C257.748 61.127 257.402 61.0608 256.929 61.004C256.465 60.9377 256.016 60.9046 255.58 60.9046C254.643 60.9046 253.801 61.1081 253.053 61.515C252.315 61.9125 251.733 62.4662 251.307 63.176C250.881 63.8858 250.668 64.7045 250.668 65.6319V78.4511H245.529Z" fill="white"/>
<path d="M269.994 78.877C267.864 78.877 266.018 78.4085 264.457 77.4716C262.895 76.5346 261.684 75.2238 260.823 73.5392C259.971 71.8546 259.545 69.8861 259.545 67.6336C259.545 65.3811 259.971 63.4079 260.823 61.7138C261.684 60.0197 262.895 58.7042 264.457 57.7672C266.018 56.8303 267.864 56.3618 269.994 56.3618C272.123 56.3618 273.969 56.8303 275.53 57.7672C277.092 58.7042 278.299 60.0197 279.15 61.7138C280.012 63.4079 280.442 65.3811 280.442 67.6336C280.442 69.8861 280.012 71.8546 279.15 73.5392C278.299 75.2238 277.092 76.5346 275.53 77.4716C273.969 78.4085 272.123 78.877 269.994 78.877ZM270.022 74.7601C271.177 74.7601 272.142 74.443 272.918 73.809C273.694 73.1654 274.271 72.3042 274.65 71.2252C275.038 70.1463 275.232 68.9444 275.232 67.6194C275.232 66.285 275.038 65.0783 274.65 63.9994C274.271 62.911 273.694 62.045 272.918 61.4015C272.142 60.7579 271.177 60.4361 270.022 60.4361C268.839 60.4361 267.855 60.7579 267.069 61.4015C266.293 62.045 265.711 62.911 265.323 63.9994C264.944 65.0783 264.755 66.285 264.755 67.6194C264.755 68.9444 264.944 70.1463 265.323 71.2252C265.711 72.3042 266.293 73.1654 267.069 73.809C267.855 74.443 268.839 74.7601 270.022 74.7601Z" fill="white"/>
<path d="M303.54 56.6457L295.775 78.4511H290.096L282.33 56.6457H287.81L292.822 72.8436H293.049L298.075 56.6457H303.54Z" fill="white"/>
<path d="M316.008 78.877C313.822 78.877 311.934 78.4227 310.344 77.5142C308.763 76.5961 307.547 75.2996 306.695 73.6244C305.844 71.9398 305.418 69.9571 305.418 67.6762C305.418 65.4332 305.844 63.4646 306.695 61.7706C307.557 60.067 308.759 58.742 310.301 57.7956C311.844 56.8397 313.657 56.3618 315.739 56.3618C317.083 56.3618 318.351 56.5795 319.543 57.0148C320.745 57.4407 321.805 58.1032 322.724 59.0023C323.651 59.9014 324.38 61.0466 324.91 62.4378C325.44 63.8195 325.705 65.4663 325.705 67.3781V68.9538H307.831V65.49H320.779C320.769 64.5057 320.556 63.6303 320.14 62.8637C319.723 62.0876 319.141 61.4772 318.394 61.0324C317.655 60.5875 316.794 60.3651 315.81 60.3651C314.759 60.3651 313.836 60.6207 313.041 61.1317C312.246 61.6333 311.626 62.2958 311.182 63.1192C310.746 63.9331 310.524 64.8275 310.514 65.8023V68.8261C310.514 70.0943 310.746 71.1827 311.21 72.0912C311.674 72.9903 312.322 73.6812 313.155 74.1639C313.988 74.6371 314.963 74.8737 316.079 74.8737C316.827 74.8737 317.504 74.7696 318.11 74.5613C318.715 74.3437 319.241 74.0266 319.685 73.6102C320.13 73.1938 320.466 72.678 320.693 72.0628L325.492 72.6023C325.189 73.8705 324.612 74.9778 323.76 75.9242C322.918 76.8611 321.839 77.5899 320.523 78.1104C319.207 78.6215 317.703 78.877 316.008 78.877Z" fill="white"/>
<path d="M349.481 78.877C347.304 78.877 345.435 78.3991 343.873 77.4432C342.321 76.4873 341.124 75.1671 340.281 73.4824C339.448 71.7884 339.032 69.8387 339.032 67.6336C339.032 65.419 339.458 63.4646 340.31 61.7706C341.161 60.067 342.363 58.742 343.916 57.7956C345.477 56.8397 347.323 56.3618 349.452 56.3618C351.222 56.3618 352.788 56.6883 354.151 57.3413C355.524 57.9849 356.617 58.8982 357.431 60.0812C358.245 61.2548 358.708 62.6271 358.822 64.1981H353.91C353.711 63.1476 353.238 62.2722 352.49 61.5718C351.752 60.862 350.763 60.5071 349.523 60.5071C348.473 60.5071 347.55 60.791 346.755 61.3589C345.96 61.9173 345.34 62.7217 344.895 63.7722C344.46 64.8228 344.242 66.0815 344.242 67.5484C344.242 69.0343 344.46 70.312 344.895 71.3814C345.33 72.4414 345.941 73.26 346.727 73.8373C347.522 74.4052 348.454 74.6891 349.523 74.6891C350.28 74.6891 350.957 74.5472 351.553 74.2632C352.159 73.9698 352.665 73.5487 353.072 72.9998C353.479 72.4509 353.759 71.7836 353.91 70.9981H358.822C358.699 72.5408 358.245 73.9083 357.459 75.1008C356.674 76.2838 355.604 77.2113 354.251 77.8833C352.897 78.5458 351.307 78.877 349.481 78.877Z" fill="white"/>
<path d="M363.042 78.4511V56.6457H368.181V78.4511H363.042ZM365.626 53.551C364.812 53.551 364.112 53.2812 363.525 52.7418C362.938 52.1929 362.645 51.5351 362.645 50.7685C362.645 49.9924 362.938 49.3347 363.525 48.7952C364.112 48.2463 364.812 47.9718 365.626 47.9718C366.449 47.9718 367.15 48.2463 367.727 48.7952C368.314 49.3347 368.607 49.9924 368.607 50.7685C368.607 51.5351 368.314 52.1929 367.727 52.7418C367.15 53.2812 366.449 53.551 365.626 53.551Z" fill="white"/>
<path d="M384.355 56.6457V60.6207H371.819V56.6457H384.355ZM374.914 51.4215H380.053V71.8925C380.053 72.5833 380.157 73.1133 380.365 73.4824C380.583 73.8421 380.867 74.0881 381.217 74.2206C381.567 74.3531 381.956 74.4194 382.381 74.4194C382.703 74.4194 382.997 74.3957 383.262 74.3484C383.536 74.3011 383.744 74.2585 383.886 74.2206L384.752 78.2382C384.478 78.3328 384.085 78.4369 383.574 78.5505C383.072 78.6641 382.457 78.7303 381.728 78.7492C380.441 78.7871 379.282 78.5931 378.25 78.1672C377.219 77.7318 376.4 77.0599 375.794 76.1513C375.198 75.2428 374.905 74.1071 374.914 72.7442V51.4215Z" fill="white"/>
<path d="M391.847 86.6281C391.147 86.6281 390.498 86.5714 389.902 86.4578C389.315 86.3537 388.847 86.2306 388.497 86.0887L389.689 82.0854C390.437 82.303 391.104 82.4071 391.691 82.3977C392.278 82.3882 392.793 82.2036 393.238 81.844C393.693 81.4938 394.076 80.9071 394.388 80.0837L394.828 78.9054L386.921 56.6457H392.372L397.398 73.1133H397.625L402.665 56.6457H408.131L399.4 81.0916C398.993 82.2462 398.453 83.2352 397.781 84.0586C397.109 84.8915 396.286 85.5256 395.311 85.9609C394.346 86.4057 393.191 86.6281 391.847 86.6281Z" fill="white"/>
<path d="M438.838 62.4094L434.153 62.9205C434.021 62.4473 433.789 62.0024 433.457 61.586C433.136 61.1696 432.7 60.8336 432.151 60.5781C431.602 60.3226 430.93 60.1948 430.135 60.1948C429.066 60.1948 428.167 60.4267 427.438 60.8904C426.719 61.3541 426.364 61.9551 426.373 62.6933C426.364 63.3274 426.596 63.8432 427.069 64.2407C427.552 64.6382 428.347 64.9647 429.454 65.2202L433.174 66.0152C435.237 66.46 436.77 67.1651 437.773 68.1305C438.786 69.0958 439.297 70.3593 439.306 71.9209C439.297 73.2932 438.895 74.5046 438.1 75.5551C437.314 76.5961 436.221 77.4101 434.82 77.9968C433.42 78.5836 431.811 78.877 429.993 78.877C427.324 78.877 425.176 78.3186 423.548 77.2019C421.92 76.0756 420.95 74.5093 420.638 72.5029L425.649 72.0202C425.876 73.0045 426.359 73.7474 427.097 74.249C427.836 74.7506 428.796 75.0014 429.979 75.0014C431.2 75.0014 432.18 74.7506 432.918 74.249C433.666 73.7474 434.039 73.1275 434.039 72.3893C434.039 71.7647 433.798 71.2489 433.315 70.8419C432.842 70.435 432.104 70.1227 431.101 69.905L427.381 69.1242C425.29 68.6889 423.742 67.9554 422.739 66.9238C421.736 65.8827 421.239 64.5672 421.248 62.9772C421.239 61.6333 421.603 60.4692 422.341 59.485C423.089 58.4912 424.125 57.7246 425.451 57.1852C426.785 56.6363 428.323 56.3618 430.064 56.3618C432.62 56.3618 434.631 56.906 436.098 57.9944C437.574 59.0827 438.488 60.5544 438.838 62.4094Z" fill="white"/>
<path d="M453.198 78.877C451.012 78.877 449.123 78.4227 447.533 77.5142C445.953 76.5961 444.737 75.2996 443.885 73.6244C443.033 71.9398 442.607 69.9571 442.607 67.6762C442.607 65.4332 443.033 63.4646 443.885 61.7706C444.746 60.067 445.948 58.742 447.491 57.7956C449.034 56.8397 450.846 56.3618 452.928 56.3618C454.272 56.3618 455.54 56.5795 456.733 57.0148C457.935 57.4407 458.995 58.1032 459.913 59.0023C460.84 59.9014 461.569 61.0466 462.099 62.4378C462.629 63.8195 462.894 65.4663 462.894 67.3781V68.9538H445.021V65.49H457.968C457.959 64.5057 457.746 63.6303 457.329 62.8637C456.913 62.0876 456.331 61.4772 455.583 61.0324C454.845 60.5875 453.983 60.3651 452.999 60.3651C451.949 60.3651 451.026 60.6207 450.231 61.1317C449.436 61.6333 448.816 62.2958 448.371 63.1192C447.936 63.9331 447.713 64.8275 447.704 65.8023V68.8261C447.704 70.0943 447.936 71.1827 448.399 72.0912C448.863 72.9903 449.511 73.6812 450.344 74.1639C451.177 74.6371 452.152 74.8737 453.269 74.8737C454.017 74.8737 454.693 74.7696 455.299 74.5613C455.905 74.3437 456.43 74.0266 456.875 73.6102C457.32 73.1938 457.656 72.678 457.883 72.0628L462.681 72.6023C462.378 73.8705 461.801 74.9778 460.949 75.9242C460.107 76.8611 459.028 77.5899 457.712 78.1104C456.397 78.6215 454.892 78.877 453.198 78.877Z" fill="white"/>
<path d="M467.242 78.4511V56.6457H472.225V60.28H472.452C472.85 59.0212 473.531 58.0512 474.496 57.3697C475.471 56.6789 476.583 56.3334 477.833 56.3334C478.117 56.3334 478.434 56.3476 478.784 56.376C479.143 56.3949 479.442 56.4281 479.678 56.4754V61.2027C479.461 61.127 479.115 61.0608 478.642 61.004C478.178 60.9377 477.729 60.9046 477.293 60.9046C476.356 60.9046 475.514 61.1081 474.766 61.515C474.028 61.9125 473.446 62.4662 473.02 63.176C472.594 63.8858 472.381 64.7045 472.381 65.6319V78.4511H467.242Z" fill="white"/>
<path d="M503.234 56.6457L495.468 78.4511H489.79L482.024 56.6457H487.504L492.516 72.8436H492.743L497.768 56.6457H503.234Z" fill="white"/>
<path d="M506.79 78.4511V56.6457H511.93V78.4511H506.79ZM509.374 53.551C508.56 53.551 507.86 53.2812 507.273 52.7418C506.686 52.1929 506.393 51.5351 506.393 50.7685C506.393 49.9924 506.686 49.3347 507.273 48.7952C507.86 48.2463 508.56 47.9718 509.374 47.9718C510.197 47.9718 510.898 48.2463 511.475 48.7952C512.062 49.3347 512.355 49.9924 512.355 50.7685C512.355 51.5351 512.062 52.1929 511.475 52.7418C510.898 53.2812 510.197 53.551 509.374 53.551Z" fill="white"/>
<path d="M526.726 78.877C524.549 78.877 522.68 78.3991 521.118 77.4432C519.566 76.4873 518.369 75.1671 517.527 73.4824C516.694 71.7884 516.277 69.8387 516.277 67.6336C516.277 65.419 516.703 63.4646 517.555 61.7706C518.407 60.067 519.609 58.742 521.161 57.7956C522.722 56.8397 524.568 56.3618 526.698 56.3618C528.467 56.3618 530.034 56.6883 531.397 57.3413C532.769 57.9849 533.862 58.8982 534.676 60.0812C535.49 61.2548 535.954 62.6271 536.067 64.1981H531.155C530.957 63.1476 530.483 62.2722 529.736 61.5718C528.997 60.862 528.008 60.5071 526.769 60.5071C525.718 60.5071 524.795 60.791 524 61.3589C523.205 61.9173 522.585 62.7217 522.14 63.7722C521.705 64.8228 521.487 66.0815 521.487 67.5484C521.487 69.0343 521.705 70.312 522.14 71.3814C522.576 72.4414 523.186 73.26 523.972 73.8373C524.767 74.4052 525.699 74.6891 526.769 74.6891C527.526 74.6891 528.202 74.5472 528.799 74.2632C529.404 73.9698 529.911 73.5487 530.318 72.9998C530.725 72.4509 531.004 71.7836 531.155 70.9981H536.067C535.944 72.5408 535.49 73.9083 534.704 75.1008C533.919 76.2838 532.849 77.2113 531.496 77.8833C530.143 78.5458 528.553 78.877 526.726 78.877Z" fill="white"/>
<path d="M549.941 78.877C547.755 78.877 545.867 78.4227 544.277 77.5142C542.696 76.5961 541.48 75.2996 540.628 73.6244C539.776 71.9398 539.35 69.9571 539.35 67.6762C539.35 65.4332 539.776 63.4646 540.628 61.7706C541.489 60.067 542.691 58.742 544.234 57.7956C545.777 56.8397 547.589 56.3618 549.671 56.3618C551.015 56.3618 552.284 56.5795 553.476 57.0148C554.678 57.4407 555.738 58.1032 556.656 59.0023C557.584 59.9014 558.312 61.0466 558.842 62.4378C559.372 63.8195 559.637 65.4663 559.637 67.3781V68.9538H541.764V65.49H554.711C554.702 64.5057 554.489 63.6303 554.072 62.8637C553.656 62.0876 553.074 61.4772 552.326 61.0324C551.588 60.5875 550.727 60.3651 549.742 60.3651C548.692 60.3651 547.769 60.6207 546.974 61.1317C546.179 61.6333 545.559 62.2958 545.114 63.1192C544.679 63.9331 544.456 64.8275 544.447 65.8023V68.8261C544.447 70.0943 544.679 71.1827 545.143 72.0912C545.606 72.9903 546.255 73.6812 547.087 74.1639C547.92 74.6371 548.895 74.8737 550.012 74.8737C550.76 74.8737 551.436 74.7696 552.042 74.5613C552.648 74.3437 553.173 74.0266 553.618 73.6102C554.063 73.1938 554.399 72.678 554.626 72.0628L559.424 72.6023C559.122 73.8705 558.544 74.9778 557.692 75.9242C556.85 76.8611 555.771 77.5899 554.456 78.1104C553.14 78.6215 551.635 78.877 549.941 78.877Z" fill="white"/>
<path d="M581.22 62.4094L576.535 62.9205C576.402 62.4473 576.171 62.0024 575.839 61.586C575.518 61.1696 575.082 60.8336 574.533 60.5781C573.984 60.3226 573.312 60.1948 572.517 60.1948C571.448 60.1948 570.549 60.4267 569.82 60.8904C569.101 61.3541 568.746 61.9551 568.755 62.6933C568.746 63.3274 568.978 63.8432 569.451 64.2407C569.933 64.6382 570.728 64.9647 571.836 65.2202L575.555 66.0152C577.619 66.46 579.152 67.1651 580.155 68.1305C581.168 69.0958 581.679 70.3593 581.688 71.9209C581.679 73.2932 581.277 74.5046 580.482 75.5551C579.696 76.5961 578.603 77.4101 577.202 77.9968C575.801 78.5836 574.193 78.877 572.375 78.877C569.706 78.877 567.558 78.3186 565.93 77.2019C564.302 76.0756 563.332 74.5093 563.02 72.5029L568.031 72.0202C568.258 73.0045 568.741 73.7474 569.479 74.249C570.217 74.7506 571.178 75.0014 572.361 75.0014C573.582 75.0014 574.562 74.7506 575.3 74.249C576.047 73.7474 576.421 73.1275 576.421 72.3893C576.421 71.7647 576.18 71.2489 575.697 70.8419C575.224 70.435 574.486 70.1227 573.483 69.905L569.763 69.1242C567.672 68.6889 566.124 67.9554 565.121 66.9238C564.118 65.8827 563.621 64.5672 563.63 62.9772C563.621 61.6333 563.985 60.4692 564.723 59.485C565.471 58.4912 566.507 57.7246 567.832 57.1852C569.167 56.6363 570.705 56.3618 572.446 56.3618C575.002 56.3618 577.013 56.906 578.48 57.9944C579.956 59.0827 580.87 60.5544 581.22 62.4094Z" fill="white"/>
</svg>
